<svg width="180" height="180" viewBox="0 0 180 180" fill="none" xmlns="http://www.w3.org/2000/svg">
<g opacity="0.05">
<path d="M87.3217 12L12 48.1425V66.9457H168V48.0427L87.3217 12ZM157.6 56.5811H22.4V54.6553L87.4783 23.4282L157.6 54.755V56.5811ZM22.4 139.498H157.6V149.862H22.4V139.498ZM12 157.635H168V168H12V157.635ZM25 77.3102H35.4V129.133H25V77.3102ZM144.6 77.3102H155V129.133H144.6V77.3102ZM113.4 77.3102H123.8V129.133H113.4V77.3102ZM56.2 77.3102H66.6V129.133H56.2V77.3102ZM84.8 77.3102H95.2V129.133H84.8V77.3102Z" fill="white"/>
</g>
</svg>
