<svg width="1440" height="1286" viewBox="0 0 1440 1286" fill="none" xmlns="http://www.w3.org/2000/svg">
<mask id="mask0_1_2774" style="mask-type:alpha" maskUnits="userSpaceOnUse" x="0" y="0" width="1441" height="1286">
<path d="M0 40C0 17.9086 17.9086 0 40 0H1400C1422.09 0 1440 17.9086 1440 40V1286H0V40Z" fill="url(#paint0_linear_1_2774)"/>
</mask>
<g mask="url(#mask0_1_2774)">
<g style="mix-blend-mode:plus-lighter" opacity="0.02">
<circle cx="893" cy="893" r="893" transform="matrix(-1 0 0 1 1613 0)" fill="url(#paint1_linear_1_2774)"/>
</g>
<g style="mix-blend-mode:plus-lighter" opacity="0.02">
<circle cx="661" cy="661" r="661" transform="matrix(-1 0 0 1 1381 232)" fill="white"/>
</g>
<g style="mix-blend-mode:plus-lighter" opacity="0.02">
<circle cx="488" cy="488" r="488" transform="matrix(-1 0 0 1 1208 405)" fill="white"/>
</g>
<g style="mix-blend-mode:plus-lighter" opacity="0.02">
<circle cx="312" cy="312" r="312" transform="matrix(-1 0 0 1 1032 581)" fill="white"/>
</g>
<g style="mix-blend-mode:plus-lighter" opacity="0.4">
<circle cx="893" cy="893" r="893" transform="matrix(-1 0 0 1 1613 0)" stroke="url(#paint2_linear_1_2774)" stroke-dasharray="2 6"/>
</g>
<g style="mix-blend-mode:plus-lighter" opacity="0.2">
<circle cx="661" cy="661" r="661" transform="matrix(-1 0 0 1 1381 232)" stroke="white" stroke-dasharray="2 6"/>
</g>
<g style="mix-blend-mode:plus-lighter" opacity="0.2">
<circle cx="488" cy="488" r="488" transform="matrix(-1 0 0 1 1208 405)" stroke="white" stroke-dasharray="2 6"/>
</g>
<g style="mix-blend-mode:plus-lighter" opacity="0.4">
<circle cx="312" cy="312" r="312" transform="matrix(-1 0 0 1 1032 581)" stroke="white" stroke-dasharray="2 6"/>
</g>
<g filter="url(#filter0_f_1_2774)">
<circle cx="720" cy="898" r="205" fill="#643ADE"/>
</g>
<g filter="url(#filter1_f_1_2774)">
<path d="M829.346 807.996C839.05 814.735 848.678 821.421 857.998 828.651C858.345 828.92 858.754 829.225 859.206 829.562C860.848 830.785 863.066 832.436 864.972 834.382C867.447 836.909 869.033 839.579 868.494 842.1L869.472 842.309L868.494 842.1C868.152 843.702 866.906 845.131 864.869 846.327C862.841 847.517 860.154 848.397 857.206 848.939C851.28 850.029 844.618 849.701 840.664 848.093C840.55 848.047 840.437 848.001 840.323 847.954C838.113 847.054 835.779 846.103 833.056 845.681C830.164 845.234 826.872 845.385 822.775 846.706C822.074 846.932 821.434 847.153 820.818 847.365C820.077 847.62 819.37 847.864 818.633 848.091C817.339 848.488 816.165 848.761 815.051 848.805C813.954 848.847 812.911 848.667 811.87 848.145C810.821 847.619 809.721 846.719 808.556 845.243L806.905 843.15L806.772 845.812C806.56 850.072 807.306 853.338 808.769 855.889C810.232 858.441 812.36 860.187 814.754 861.495C817.132 862.795 819.815 863.684 822.413 864.498C822.726 864.596 823.038 864.692 823.348 864.789C825.644 865.502 827.842 866.186 829.81 867.082C834.329 869.139 837.538 872.211 839.043 875.565C840.532 878.885 840.388 882.547 838.099 885.988C831.406 896.047 818.959 899.527 806.209 898.457C794.097 897.441 782.011 892.331 774.876 885.241C779.596 883.879 785.611 883.435 791.712 883.667C798.463 883.923 805.218 885.003 810.274 886.506L812.756 887.244L811.414 885.029C810.012 882.716 807.304 880.361 803.851 878.167C800.373 875.958 796.044 873.853 791.288 872.075C783.312 869.094 774.047 867 765.475 866.916C770.707 864.931 776.441 864.521 781.617 864.788C787.907 865.112 793.26 866.43 795.701 867.032C795.82 867.061 795.932 867.088 796.036 867.114L798.804 867.792L797.067 865.533C791.719 858.581 781.93 852.823 769.602 851.62C771.034 849.883 773.342 847.552 776.052 846.034L775.433 844.17C772.15 844.605 768.474 846.119 764.736 848.248C760.985 850.383 757.109 853.174 753.415 856.227C746.037 862.325 739.301 869.541 735.68 874.835L734.599 876.416L736.514 876.4C737.622 876.39 738.752 876.399 739.896 876.408C743.161 876.434 746.536 876.461 749.807 876.063C745.937 879.772 740.048 882.091 733.896 882.985C727.833 883.866 721.733 883.33 717.349 881.549C734.135 876.471 743.039 859.894 745.172 843.392L745.601 840.074L743.421 842.613C733.769 853.857 724.854 859.45 717.181 861.012C709.563 862.562 703.044 860.167 698.019 855.126C687.88 844.956 683.813 823.937 690.071 803.093L691.13 799.564L688.432 802.073C672.455 816.927 670.432 837.152 674.16 854.926C676.025 863.818 679.334 872.137 683.093 878.944C685.701 883.666 688.547 887.696 691.306 890.689C688.43 889.241 685.493 886.997 682.868 884.485C678.896 880.686 675.861 876.491 674.939 873.985L673.001 874.372L673.483 885.908C662.238 871.683 658.24 852.427 659.9 833.858C661.649 814.284 669.669 795.667 681.851 784.71L684.345 782.467L681.03 782.978C676.106 783.737 670.167 786.77 664.217 790.994C658.242 795.237 652.156 800.753 646.927 806.606C641.703 812.453 637.297 818.679 634.721 824.349C632.177 829.95 631.278 835.327 633.638 839.208L634.525 840.666L635.364 839.18C636.729 836.76 638.895 834.457 641.207 832.38C638.643 839.104 636.992 848.63 636.355 858.299C635.573 870.175 636.306 882.524 638.91 890.514L639.598 892.625L640.723 890.71C641.841 888.806 642.883 887.166 643.933 885.513C644.501 892.06 645.792 900.605 647.96 908.775C650.468 918.227 654.206 927.404 659.532 932.283L661.148 931.206C658.887 924.944 657.167 916.431 656.317 908.033C655.823 903.161 655.626 898.364 655.776 894.096C656.613 899.123 657.916 904.947 659.892 910.847C663.116 920.472 668.157 930.392 675.96 937.355L677.769 938.969L677.624 936.549C677.477 934.099 677.197 931.735 676.924 929.427C676.885 929.094 676.846 928.762 676.807 928.431C679.378 939.492 683.4 950.753 688.306 961.01C694.358 973.662 701.793 984.867 709.582 992.293C673.525 981.589 649.015 949.14 633.592 916.107L631.689 916.612C633.029 932.928 635.447 949.731 640.611 964.168C617.067 941.022 609.74 905.508 616.485 873.769L617.178 870.507L614.805 872.849C613.731 873.909 611.328 877.028 608.81 880.944C606.934 883.863 604.957 887.28 603.385 890.702C600.227 859.58 613.039 834.67 622.486 825.806L621.511 824.12L605.147 829.106C610.629 818.495 620.233 807.979 630.998 799.297C642.456 790.056 655.12 782.978 665.329 780.084L665.057 778.122C659.305 778.113 654.281 777.219 649.988 775.06C646.321 773.215 643.138 770.423 640.479 766.374C640.629 766.423 640.78 766.473 640.932 766.523C641.163 766.6 641.398 766.679 641.636 766.759C642.383 767.01 643.161 767.271 643.953 767.505C646.065 768.128 648.395 768.593 651.106 768.307L654.537 767.945L651.444 766.416C648.795 765.106 646.119 762.795 643.727 760.049C642.275 758.383 640.945 756.575 639.805 754.772C644.406 757.473 650.709 760.368 656.404 760.963L658.151 761.145L657.416 759.55C656.854 758.329 656.036 757.426 655.282 756.595C655.141 756.439 655.002 756.286 654.868 756.134C654.372 755.572 653.88 754.972 653.429 754.22C656.338 755.168 658.841 755.915 661.455 756.251C664.74 756.673 668.158 756.445 672.805 755.273L676.303 754.39L672.85 753.346C668.894 752.149 666.396 751.34 664.206 750.295C662.034 749.259 660.132 747.975 657.41 745.791L657.41 745.791C642.011 733.438 629.307 726.447 619.362 723.752C609.415 721.057 602.009 722.62 597.598 727.727C593.247 732.764 592.108 740.927 593.869 750.752C595.387 759.218 599.082 769.073 604.957 779.578C592.884 768.087 585.899 752.536 585.249 738.486C584.886 730.627 586.505 723.284 590.268 717.381C594.021 711.493 599.948 706.972 608.334 704.793L608.334 704.793C617.109 702.513 625.922 704.22 634.625 707.884C643.339 711.552 651.842 717.138 659.984 722.511L660.308 722.725C668.285 727.99 675.953 733.05 682.993 735.665C690.173 738.333 696.937 738.537 702.768 733.64L704.333 732.325L702.335 731.896C698.201 731.009 693.236 729.911 688.841 728.008C684.862 726.285 681.482 723.958 679.586 720.662C692.85 717.602 703.893 717.019 713.783 718.887C722.753 720.582 730.833 724.303 738.802 730.109C731.5 729.302 722.619 730.655 713.76 734.116C703.144 738.264 692.461 745.474 684.439 755.794L685.912 757.138C694.639 748.966 706.942 741.109 720.549 737.623C732.223 734.633 744.838 734.861 757.018 740.849C749.674 739.603 742.38 740.052 735.899 742.694C727.388 746.164 720.405 753.364 716.586 765.156L718.451 765.87C724.421 752.452 743.011 743.496 761.827 747.258C756.085 749.686 750.027 755.29 746.559 762.881L748.256 763.913C752.386 758.637 760.646 755.035 768.967 754.528C776.861 754.048 784.454 756.364 788.5 762.259C785.835 763.507 782.625 766.16 780.112 769.655C777.198 773.707 775.113 779.043 775.975 784.887L776.483 788.329L777.88 785.142C779.317 781.865 781.423 779.048 784.372 776.98C787.166 775.021 790.767 773.699 795.378 773.335C795.92 775.3 796.352 778.589 796.658 781.632C796.829 783.329 796.958 784.908 797.045 786.067C797.089 786.646 797.122 787.119 797.145 787.45C797.157 787.614 797.166 787.746 797.173 787.836L797.174 787.854C797.177 787.891 797.179 787.923 797.181 787.948C797.182 787.962 797.184 787.98 797.186 787.997C797.186 788.004 797.188 788.022 797.192 788.044C797.193 788.053 797.197 788.078 797.203 788.108C797.204 788.113 797.206 788.121 797.208 788.129C797.213 788.148 797.219 788.173 797.224 788.19C797.237 788.231 797.29 788.355 797.335 788.435L798.243 789.876L799.059 788.382C799.558 787.469 800.089 786.623 800.622 785.773C802.11 783.404 803.615 781.007 804.488 777.046C806.223 777.987 807.82 779.339 809.464 780.816C809.708 781.035 809.954 781.258 810.202 781.482C811.926 783.044 813.735 784.683 815.732 785.855L817.927 787.143L817.197 784.706C816.442 782.185 814.899 779.763 813.34 777.506C812.999 777.012 812.657 776.528 812.322 776.05C811.501 774.883 810.71 773.759 810.026 772.658C813.598 773.111 815.571 773.883 817.155 774.804C817.936 775.259 818.629 775.752 819.405 776.306C819.577 776.428 819.754 776.554 819.936 776.683C820.929 777.384 822.051 778.143 823.527 778.913L825.381 779.881L824.97 777.83C824.139 773.68 820.867 769.331 816.574 766.163C812.378 763.066 807.042 760.975 801.708 761.34C801.53 761.186 801.318 761.003 801.079 760.797C800.208 760.047 798.98 758.989 797.767 757.913C796.927 757.168 796.112 756.428 795.455 755.8C806.537 755.256 820.095 757.421 830.518 762.469C836.055 765.151 840.639 768.613 843.524 772.845C846.268 776.871 847.506 781.636 846.516 787.222C842.69 787.507 837.532 788.533 832.772 791.243C833.098 790.04 833.419 788.934 833.726 787.879C835.246 782.645 836.398 778.679 835.899 770.305L833.923 770.153C833.27 773.163 831.8 776.341 830.103 779.623C829.637 780.525 829.152 781.436 828.665 782.352C827.404 784.724 826.128 787.125 825.12 789.449C823.722 792.675 822.753 795.934 823.058 799.021C823.37 802.179 824.998 805.021 828.483 807.396C828.484 807.397 828.485 807.398 828.487 807.399L829.346 807.996ZM760.553 838.37V842.004L762.32 839.036C769.295 833.503 777.568 829.871 785.744 829.692C793.93 829.513 802.117 832.791 808.943 841.301L811.2 844.115L810.714 840.54C809.745 833.42 806.008 826.053 801.182 820.035C797.746 815.751 793.704 812.083 789.622 809.658C796.208 809.979 802.778 809.904 809.453 809.04L809.467 807.059C804.515 806.35 797.777 803.509 791.876 800.802C790.544 800.19 789.246 799.582 788.029 799.012C786.594 798.339 785.271 797.719 784.136 797.209C783.08 796.734 782.15 796.337 781.401 796.064C781.027 795.927 780.68 795.815 780.375 795.741C780.092 795.671 779.755 795.61 779.439 795.64C777.022 795.868 775.397 795.77 774.134 795.349C772.913 794.942 771.935 794.199 770.877 792.931C762.132 780.6 746.341 769.629 730.418 770.377L730.172 772.332C739.433 775.171 748.028 780.528 754.176 790.291C748.999 788.476 743.231 788.291 737.658 788.113C736.711 788.083 735.77 788.053 734.838 788.015C723.414 787.551 715.797 784.442 711.646 779.027C707.5 773.619 706.592 765.622 709.274 754.855L709.729 753.028L707.96 753.674C705.47 754.583 702.779 756.651 700.467 759.455C698.145 762.273 696.153 765.897 695.107 770C693.045 778.095 694.696 787.946 704.471 796.98C696.242 809.879 696.913 820.397 699.795 827.757C701.252 831.479 703.259 834.359 704.9 836.307C705.722 837.283 706.455 838.029 706.986 838.534C707.167 838.705 707.324 838.849 707.454 838.965L706.91 845.527L706.82 846.61L707.907 846.61C713.562 846.608 722.025 845.646 730.096 842.864C738.15 840.088 745.971 835.442 750.103 827.961L751.185 826.001L749.004 826.503C737.164 829.224 725.644 826.856 718.502 821.426C714.941 818.719 712.493 815.274 711.577 811.337C710.692 807.534 711.211 803.171 713.69 798.423C718.922 798.096 722.868 799.173 726.304 801.201C729.895 803.321 732.98 806.507 736.409 810.399C739.095 813.448 741.654 815.363 744.174 816.498C746.701 817.637 749.13 817.965 751.511 817.925C753.524 817.89 755.534 817.588 757.513 817.291C757.847 817.241 758.179 817.191 758.511 817.143C760.628 816.833 762.743 816.574 764.957 816.642C767.466 824.331 765.115 830.401 760.788 837.7L760.553 837.887V838.368V838.37ZM608.082 703.826L608.082 703.826L608.082 703.826Z" stroke="white" stroke-width="2"/>
<path d="M722.164 1042.89L721.437 1042.21C721.431 1042.21 721.451 1042.19 721.495 1042.12C721.495 1042.12 721.496 1042.12 721.496 1042.12C721.722 1042.38 721.944 1042.64 722.164 1042.89ZM722.164 1042.89L722.922 1042.24C722.85 1042.16 722.779 1042.07 722.707 1041.99C722.495 1042.42 722.309 1042.74 722.164 1042.89ZM635.824 1016.73C628.662 1010.35 620.865 999.985 614.173 988.401C607.811 977.387 602.5 965.361 599.696 954.748C614.841 975.419 635.292 991.159 655.66 1006.59C656.254 1007.04 656.848 1007.49 657.442 1007.94C678.609 1023.96 699.514 1039.79 714.482 1060.66L716.596 1063.61L716.292 1060C715.025 1044.96 708.743 1034.46 698.899 1025.04C708.511 1029.76 715.915 1037.17 721.406 1043.55L722.129 1044.39L722.891 1043.58C723.089 1043.37 723.263 1043.08 723.406 1042.82C723.56 1042.53 723.724 1042.19 723.892 1041.82C724.228 1041.07 724.601 1040.15 724.966 1039.22C725.234 1038.54 725.497 1037.86 725.74 1037.22C726.172 1036.09 726.544 1035.12 726.784 1034.59L726.784 1034.59C728.039 1031.78 729.419 1029.4 730.907 1026.87L730.907 1026.87C732.134 1024.79 733.993 1022.38 736.049 1020.23C736.995 1019.24 737.97 1018.31 738.931 1017.51C737.058 1021.65 735.819 1026.4 734.945 1031.47C733.795 1038.14 733.264 1045.44 732.783 1052.77C732.74 1053.43 732.698 1054.08 732.655 1054.74C732.221 1061.43 731.788 1068.1 730.932 1074.37C730.11 1080.39 728.904 1085.97 726.96 1090.78C718.213 1072.41 705.132 1057.33 687.407 1047.21L685.429 1046.08L685.936 1048.3L686.911 1048.08C685.936 1048.3 685.936 1048.3 685.936 1048.3L685.936 1048.31L685.936 1048.31L685.938 1048.31L685.944 1048.34L685.969 1048.45C685.991 1048.55 686.024 1048.69 686.065 1048.88C686.149 1049.25 686.268 1049.78 686.414 1050.44C686.704 1051.75 687.099 1053.55 687.513 1055.52C688.136 1058.48 688.797 1061.78 689.219 1064.33C678.665 1056.78 666.322 1044.41 656.078 1032.29C650.654 1025.87 645.837 1019.54 642.202 1014.05C638.542 1008.52 636.156 1003.97 635.479 1001.06L633.506 1001.29C633.495 1007.1 634.306 1010.43 635.217 1014.17C635.417 1014.99 635.622 1015.83 635.824 1016.73ZM741.737 1014.33C741.155 1014.64 740.552 1015.02 739.938 1015.46L740.709 1016.14C741.035 1015.52 741.377 1014.91 741.737 1014.33ZM694.375 1022.59C694.866 1022.94 695.369 1023.3 695.84 1023.66L696.342 1022.79C695.234 1022.33 694.1 1021.91 692.939 1021.53C693.374 1021.87 693.869 1022.22 694.375 1022.59Z" stroke="white" stroke-width="2"/>
<path d="M775.717 986.942H774.509L774.708 987.992C774.583 989.071 774.437 990.119 774.294 991.153C773.83 994.488 773.387 997.679 773.715 1001.31C768.988 999.695 763.564 995.399 759.188 990.298C756.799 987.513 754.765 984.536 753.361 981.712C752.789 980.562 752.329 979.453 751.991 978.403C752.869 979.355 753.9 980.347 754.977 981.301C757.646 983.668 760.729 985.923 762.575 986.766L765.983 988.323L763.804 985.275C758.75 978.203 756.097 968.304 758.348 957.362C760.442 963.278 763.597 969.662 768.415 973.667C771.313 976.076 774.822 977.632 779.034 977.692C783.229 977.752 788.027 976.328 793.52 972.958C806.309 965.112 816.493 962.639 824.271 963.391C832.013 964.139 837.486 968.091 840.897 973.373C844.325 978.682 845.677 985.352 845.076 991.458C844.575 996.54 842.737 1001.12 839.742 1004.2C840 1002.05 840.075 999.889 839.991 997.953C839.931 996.575 839.789 995.294 839.567 994.204C839.35 993.136 839.039 992.168 838.596 991.476L837.233 989.345L836.771 991.832C835.923 996.399 833.71 1001.43 830.829 1005.73C828.67 1008.95 826.182 1011.7 823.684 1013.54C824.95 1009.76 825.483 1005.07 825.143 1000.82L823.185 1000.62C821.223 1007.49 815.1 1020.02 804.761 1027.09C806.069 1020.46 807.273 1012.93 807.428 1005.79L807.48 1003.36L805.733 1005.05L795.818 1014.64L788.677 997.148L787.64 994.609L786.799 997.219C785.762 1000.44 784.912 1003.62 784.31 1007C783.952 1006.34 783.603 1005.7 783.263 1005.08C780.472 999.981 778.274 995.965 776.73 987.917L776.841 986.942H775.72H775.717Z" stroke="white" stroke-width="2"/>
<path d="M576.13 892.308L577.203 890.242L574.966 890.886C573.474 891.316 572.237 892.384 571.22 893.64C570.196 894.905 569.323 896.449 568.58 897.978C567.964 899.247 567.424 900.535 566.957 901.68C566.56 891.891 568.504 879.328 572.429 867.411C576.447 855.217 582.482 843.873 590.036 836.897C584.921 852.49 576.892 885.016 591.323 919.019C591.96 920.523 591.876 921.072 591.668 921.505C591.531 921.788 591.301 922.096 590.914 922.549C590.81 922.671 590.694 922.804 590.569 922.948C590.256 923.306 589.886 923.73 589.496 924.216L589.496 924.216C583.076 932.228 581.86 943.037 582.072 952.774C580.068 950.141 578.344 946.552 576.938 942.345C575.138 936.956 573.891 930.653 573.218 924.272C572.546 917.892 572.452 911.463 572.945 905.831C573.439 900.174 574.518 895.414 576.13 892.308Z" stroke="white" stroke-width="2"/>
<path d="M866.584 863.153C869.038 860.768 871.276 856.859 872.418 849.574L874.639 853.189C875.029 853.972 875.544 855.02 875.978 856.123C876.426 857.26 876.756 858.374 876.811 859.271C876.932 861.256 875.927 863.155 874.538 865.016C873.997 865.74 873.427 866.423 872.87 867.09C872.717 867.273 872.565 867.454 872.416 867.635C871.742 868.45 871.084 869.275 870.659 870.056L869.331 872.499L871.911 871.462C874.153 870.561 876.072 869.415 877.856 868.35C877.929 868.306 878.003 868.262 878.076 868.219C878.435 875.177 878.063 878.295 877.057 880.321C876.529 881.385 875.797 882.199 874.759 883.154C874.414 883.471 874.023 883.814 873.594 884.19C872.774 884.909 871.817 885.748 870.791 886.752L868.301 889.187L871.704 888.443L875.445 887.626C874.717 890.079 873.147 893.523 871.029 896.519C869.739 898.345 868.28 899.952 866.739 901.057C865.198 902.16 863.64 902.718 862.106 902.585C860.886 902.478 859.3 901.795 857.57 900.635C855.862 899.491 854.111 897.948 852.575 896.256C851.037 894.562 849.745 892.752 848.932 891.086C848.099 889.38 847.857 888.008 848.12 887.09L848.12 887.09C849.011 883.987 850.895 880.225 853.139 876.652C855.379 873.084 857.935 869.774 860.124 867.568C860.629 867.059 861.33 866.673 862.317 866.129C862.449 866.056 862.586 865.981 862.729 865.902C863.883 865.261 865.245 864.456 866.584 863.153ZM847.159 886.814L847.159 886.814L847.159 886.814Z" stroke="white" stroke-width="2"/>
<path d="M826.078 753.066L818.254 744.689C819.182 735.542 818.619 729.345 816.972 725.353C816.127 723.305 814.982 721.804 813.58 720.803C812.175 719.8 810.577 719.345 808.904 719.281C805.609 719.155 801.95 720.545 798.565 722.341C795.344 724.049 792.246 726.196 789.763 727.988C788.925 727.674 787.92 727.293 786.964 726.887C786.317 726.612 785.726 726.339 785.236 726.082C787.57 723.806 790.711 721.155 793.996 718.414C794.326 718.139 794.657 717.863 794.989 717.586C798.355 714.781 801.784 711.922 804.488 709.365C808.933 706.202 812.892 706.105 816.258 707.869C819.73 709.688 822.747 713.58 824.947 718.724C829.157 728.565 830.14 742.423 826.078 753.066Z" stroke="white" stroke-width="2"/>
<path d="M776.604 1021.82L784.814 1026.28C783.977 1035.6 778.995 1045.19 772.184 1053.73C766.797 1060.48 760.314 1066.51 753.967 1071.15C760.356 1062.65 765.365 1053.06 769.06 1044.41C773.105 1034.94 775.6 1026.54 776.604 1021.82Z" stroke="white" stroke-width="2"/>
<path d="M592.399 797.282C595.24 796.421 597.905 795.756 600.936 795.359C600.926 795.367 600.915 795.375 600.905 795.383C600.595 795.614 600.261 795.863 599.902 796.133C598.016 797.552 595.547 799.47 592.819 801.991C587.395 807.004 580.954 814.394 575.994 825.007C570.82 829.555 567.715 833.412 565.477 836.609C564.662 837.775 563.957 838.86 563.32 839.84C563.082 840.207 562.853 840.559 562.632 840.895C562.541 841.033 562.451 841.168 562.363 841.301C563.592 833.223 567.848 823.248 573.535 814.117C579.252 804.94 586.295 796.807 592.913 792.396C592.289 793.469 591.569 794.742 591.157 796.017L590.569 797.836L592.399 797.282Z" stroke="white" stroke-width="2"/>
<path d="M809.632 750.078C800.179 744.682 788.324 741.378 777.626 743.636C775.246 741.857 772.211 740.059 769.565 738.549C768.857 738.145 768.191 737.769 767.568 737.418C766.94 737.064 766.356 736.735 765.817 736.426C765.604 736.304 765.403 736.188 765.216 736.079C768.02 735.208 771.553 735.033 775.511 735.46C780.331 735.98 785.673 737.383 790.879 739.382C796.083 741.38 801.121 743.961 805.336 746.818C806.9 747.879 808.342 748.971 809.632 750.078Z" stroke="white" stroke-width="2"/>
<path d="M796.062 950.781C798.47 946.263 801.105 941.94 802.65 939.695C803.531 941.941 804.042 944.982 804.257 948.13C804.488 951.504 804.375 954.901 804.07 957.388L804.07 957.388C804.039 957.638 804.013 957.858 803.99 958.054C803.95 958.4 803.918 958.674 803.882 958.916C803.825 959.29 803.774 959.463 803.726 959.567C803.66 959.705 803.564 959.841 802.632 960.34L802.632 960.34C801.272 961.069 798.98 961.933 796.564 962.536C794.508 963.049 792.479 963.342 790.916 963.254C790.95 962.92 791.023 962.514 791.144 962.033C791.37 961.126 791.739 960.043 792.222 958.835C793.185 956.421 794.569 953.584 796.062 950.781Z" stroke="white" stroke-width="2"/>
<path d="M845.361 929.188C844.468 930.1 843.648 930.829 842.939 931.356C842.926 931.11 842.909 930.888 842.892 930.684C842.877 930.499 842.862 930.337 842.849 930.192C842.818 929.847 842.794 929.592 842.791 929.322C842.782 928.649 842.9 927.914 843.644 925.807C845.305 921.108 846.128 917.909 846.494 914.648C846.813 911.804 846.78 908.938 846.684 905.042C847.84 905.723 849.054 906.616 850.333 907.558C850.469 907.658 850.605 907.759 850.743 907.859C852.398 909.076 854.177 910.354 855.942 911.09C855.34 914.705 852.936 919.356 850.046 923.472C848.513 925.654 846.875 927.641 845.361 929.188Z" stroke="white" stroke-width="2"/>
<path d="M847.137 797.811C847.185 797.844 847.233 797.877 847.28 797.909C847.594 798.125 847.881 798.323 848.182 798.578C854.51 803.964 858.728 811.614 859.53 820.379L842.682 806.75C842.788 806.658 842.919 806.537 843.091 806.365C843.091 806.365 843.091 806.365 843.091 806.365L847.137 797.811ZM847.137 797.811C847.005 799.503 846.826 800.949 845.786 802.891L847.137 797.811ZM844.088 805.381C844.579 804.826 845.258 803.877 845.785 802.891L844.088 805.381Z" stroke="white" stroke-width="2"/>
<path d="M805.224 911.798C805.736 911.715 806.252 911.632 806.773 911.549C806.342 912.766 805.688 914.197 804.864 915.751C803.694 917.957 802.215 920.354 800.639 922.648C799.063 924.942 797.4 927.119 795.867 928.888C794.452 930.522 793.197 931.748 792.255 932.417C792.213 931.616 792.244 930.551 792.343 929.281C792.49 927.416 792.775 925.224 793.119 923.01C793.731 919.076 794.523 915.125 795.038 912.912C798.729 912.848 801.91 912.334 805.224 911.798Z" stroke="white" stroke-width="2"/>
<path d="M832.914 948.841L836.115 942.448C836.774 944.974 837.36 947.742 837.612 950.516C837.908 953.77 837.738 956.971 836.736 959.779C836.461 959.71 836.133 959.616 835.758 959.496C834.998 959.254 834.118 958.933 833.219 958.591C832.499 958.316 831.756 958.023 831.06 957.748C830.443 957.505 829.863 957.276 829.371 957.088C829.638 955.927 830.123 954.646 830.704 953.343C831.249 952.122 831.853 950.933 832.409 949.839C832.583 949.497 832.752 949.163 832.914 948.841L832.914 948.841Z" stroke="white" stroke-width="2"/>
<path d="M739.849 896.667C735.334 898.243 730.574 898.651 727.067 897.428C727.207 896.856 727.453 896.305 727.76 895.725C727.878 895.502 728.012 895.263 728.154 895.012C728.389 894.593 728.642 894.142 728.865 893.684C733.875 893.579 737.234 893.422 740.484 892.964C743.148 892.589 745.721 892.014 749.054 891.117C746.829 893.407 743.507 895.39 739.849 896.667Z" stroke="white" stroke-width="2"/>
<path d="M746.415 723.641C749.721 723.815 753.905 724.43 757.995 725.309C760.933 725.94 763.781 726.699 766.168 727.508C766.91 727.759 767.598 728.012 768.225 728.264C767.27 728.303 766.206 728.348 765.104 728.394C764.186 728.432 763.241 728.471 762.31 728.51C760.225 728.596 758.206 728.679 756.697 728.735C755.942 728.764 755.317 728.785 754.877 728.798C754.685 728.804 754.531 728.808 754.418 728.809C754.417 728.808 754.415 728.807 754.413 728.806C754.32 728.754 754.198 728.681 754.046 728.588C753.744 728.401 753.353 728.148 752.892 727.845C752.503 727.59 752.052 727.291 751.567 726.969C750.935 726.55 750.245 726.092 749.559 725.642C748.519 724.961 747.431 724.261 746.415 723.641Z" stroke="white" stroke-width="2"/>
<path d="M751.645 803.736C753.152 804.6 754.322 805.131 755.283 805.443C754.108 805.592 752.956 805.642 751.817 805.535C748.999 805.27 746.201 804.028 743.442 800.657C743.311 800.496 743.169 800.323 743.018 800.139C742.547 799.569 741.997 798.901 741.47 798.215C741.25 797.929 741.042 797.649 740.85 797.379L745.641 797.774C746.484 799.274 747.151 800.304 747.993 801.163C748.922 802.111 750.018 802.803 751.645 803.736Z" stroke="white" stroke-width="2"/>
</g>
<path fill-rule="evenodd" clip-rule="evenodd" d="M858.616 827.865C848.993 820.399 839.045 813.514 829.05 806.573C815.95 797.65 832.167 782.964 834.901 770.365C835.553 781.303 833.372 784.392 831.174 793.443C836.592 789.606 843.01 788.393 847.35 788.172C852.54 763.451 816.455 753.029 793.297 754.939C793.965 756.079 800.088 761.247 801.369 762.37C811.703 761.405 822.457 770.376 823.99 778.026C818.316 775.065 818.045 772.279 808.192 771.463C810.407 775.764 814.828 780.283 816.239 784.993C811.89 782.44 808.465 777.558 803.754 775.584C802.718 781.661 800.323 783.984 798.182 787.902C798.16 787.868 797.489 776.153 796.097 772.285C785.814 772.846 779.96 777.908 776.965 784.741C775.337 773.713 784.811 764.43 789.986 762.739C781.745 748.574 756.187 752.161 747.468 763.296C751.563 754.336 759.325 748.318 765.58 747.138C745.246 741.339 724.118 750.675 717.538 765.464C725.015 742.376 744.708 737.648 763.503 743.426C735.02 724.581 702.872 739.887 685.229 756.408C701.024 736.087 727.343 727.969 742.664 731.805C724.397 717.171 705.926 713.313 678.117 719.98C681.89 728.412 693.878 731.104 702.125 732.874C680.342 751.168 644.348 694.403 608.082 703.826C573.611 712.779 578.728 760.594 608.903 784.315C578.334 734.736 595.383 697.317 656.784 746.571C662.287 750.986 664.664 751.915 672.561 754.303C663.449 756.602 659.401 755.138 651.551 752.549C652.965 756.538 655.331 757.412 656.508 759.968C649.474 759.234 641.36 754.823 636.966 751.784C639.893 757.651 645.38 764.533 651.001 767.312C645.941 767.846 642.249 765.596 638.319 764.731C644.288 775.486 653.357 779.105 665.056 779.122C644.301 785.006 613.924 807.757 603.233 830.734L621.802 825.077C611.726 834.531 598.165 861.433 602.85 894.599C606.093 885.723 613.525 875.516 615.507 873.561C608.414 906.938 616.734 944.552 643.086 967.842C636.901 952.698 634.151 934.371 632.686 916.53C648.732 950.898 674.701 984.895 713.468 994.38C695.881 980.223 679.044 944.857 675.423 915.011C674.551 922.904 676.184 929.229 676.626 936.609C661.385 923.008 656.75 897.667 655.694 885.602C653.279 897.153 655.612 918.82 660.208 931.546C650.015 922.208 645.483 895.856 644.71 882.408C643.096 885 641.557 887.316 639.86 890.204C634.769 874.58 636.899 841.404 643.96 828.763C640.552 831.476 636.622 834.913 634.493 838.688C626.157 824.982 662.412 786.859 681.183 783.966C656.347 806.303 648.8 859.488 674.605 888.814L674 874.33C676.001 879.765 686.649 891.613 695.461 893.201C680.991 882.052 657.855 831.867 689.113 802.805C676.465 844.932 705.266 888.597 744.18 843.264C741.966 860.394 732.414 877.301 714.526 881.253C723.805 886.937 744.653 885.037 752.419 874.62C747.311 875.708 741.799 875.355 736.506 875.4C743.615 865.005 763.167 846.802 775.564 845.162C771.82 847.257 768.848 850.789 767.703 852.475C780.637 853.241 790.857 859.101 796.274 866.143C791.76 865.037 773.681 860.322 760.749 868.092C779.972 866.403 805.428 877.083 810.558 885.548C800.262 882.487 783.202 881.185 773.049 884.776C787.364 900.591 824.977 907.513 838.932 886.542C843.9 879.073 839.596 870.439 830.224 866.172C821.008 861.975 806.949 862.328 807.771 845.862C812.695 852.103 817.261 849.534 823.082 847.658C830.999 845.105 835.618 847.121 840.287 849.02C848.669 852.428 867.775 850.256 869.472 842.309C870.782 836.18 861.687 830.25 858.611 827.861L858.616 827.865ZM761.553 838.37C766.101 830.73 768.709 824.157 765.683 815.674C755.417 815.052 747.619 821.61 737.16 809.738C730.296 801.949 724.46 796.557 713.069 797.465C701.881 817.917 725.079 833.028 749.228 827.477C741.31 841.815 719.034 845.606 707.907 845.61L708.493 838.539C708.493 838.539 688.688 822.726 705.773 796.81C685.638 778.915 699.207 757.935 708.303 754.613C702.875 776.41 711.698 788.077 734.798 789.014C742.36 789.321 750.116 789.14 756.558 792.382C750.207 780.703 740.711 774.517 730.465 771.376C745.943 770.648 761.461 781.364 770.083 793.541C772.374 796.301 774.601 797.1 779.532 796.636C781.852 796.417 799.088 806.583 809.325 808.049C800.955 809.132 792.736 808.962 784.397 808.326C795.183 811.869 807.848 826.893 809.723 840.675C795.694 823.185 775.805 826.98 761.553 838.368V838.37Z" fill="white"/>
<path fill-rule="evenodd" clip-rule="evenodd" d="M637.388 1019.35C636.114 1012.48 634.49 1009.51 634.506 1001.29C637.39 1013.67 668.431 1051.57 690.544 1066.47C689.914 1061.24 686.911 1048.08 686.911 1048.08C705.077 1058.45 718.325 1074.09 726.988 1093.21C737.116 1071.76 730.059 1033.3 741.737 1014.33C737.682 1016.5 732.592 1022.04 730.045 1026.37C728.557 1028.9 727.151 1031.32 725.871 1034.18C725.097 1035.91 722.985 1042.02 722.164 1042.89C715.5 1035.15 705.933 1025.77 692.939 1021.53C694.152 1022.47 695.826 1023.55 696.941 1024.57C707.381 1034.17 714 1044.71 715.295 1060.08C684.308 1016.86 628.106 995.215 597.573 949.994C602.197 973.702 621.634 1006.92 637.391 1019.35L637.388 1019.35Z" fill="white"/>
<path fill-rule="evenodd" clip-rule="evenodd" d="M775.717 987.942C777.725 998.536 780.885 1002.42 784.839 1010.16C785.412 1005.69 786.424 1001.64 787.751 997.526L795.45 1016.39L806.428 1005.77C806.257 1013.65 804.789 1022.04 803.318 1029.19C815.149 1022.26 822.028 1008.31 824.146 1000.9C824.569 1006.19 823.593 1012.14 821.578 1015.99C828.649 1012.63 836 1001.47 837.754 992.015C839.131 994.166 839.486 1000.92 838.333 1006.71C856.27 994.151 844.585 940.458 792.997 972.106C771.462 985.318 762.277 967.122 758.217 953.755C754.541 966.304 757.252 977.827 762.991 985.857C759.579 984.298 751.024 977.168 750.32 974.169C749.865 983.365 764.211 1000.22 774.886 1002.68C774.099 997.355 775.124 993.185 775.72 987.942H775.717Z" fill="white"/>
<path fill-rule="evenodd" clip-rule="evenodd" d="M566.271 905.749C567.718 903.329 570.39 893.245 575.243 891.847C568.436 904.958 571.357 944.258 583.168 955.515C582.674 945.131 583.485 933.318 590.277 924.841C592.409 922.181 593.601 921.832 592.243 918.628C576.823 882.293 587.295 847.626 592.128 833.849C574.008 847.416 563.805 884.979 566.271 905.749Z" fill="white"/>
<path fill-rule="evenodd" clip-rule="evenodd" d="M876.791 886.308L871.49 887.467C877.734 881.36 879.984 882.684 878.981 866.527C876.656 867.858 874.388 869.388 871.538 870.534C873.026 867.797 878.096 863.925 877.809 859.21C877.68 857.098 876.302 854.28 875.514 852.703L872.578 847.924C872.025 847.3 872.337 847.611 871.74 847.118C869.769 864.459 862.212 864.044 859.414 866.863C854.906 871.408 849.014 880.353 847.159 886.814C845.686 891.942 856.146 903.069 862.02 903.581C869.408 904.223 875.911 891.405 876.79 886.307L876.791 886.308Z" fill="white"/>
<path fill-rule="evenodd" clip-rule="evenodd" d="M817.212 745.038L826.412 754.889C836.122 732.69 822.768 695.031 803.851 708.592C797.953 714.179 788.499 721.259 783.638 726.267C784.918 727.261 788.091 728.431 789.916 729.112C800.101 721.722 821.166 707.642 817.212 745.04V745.038Z" fill="white"/>
<path fill-rule="evenodd" clip-rule="evenodd" d="M749.008 1075.69C765.118 1065.83 784.501 1045.31 785.862 1025.72L775.885 1020.29C774.387 1028.75 765.689 1056.64 749.008 1075.69Z" fill="white"/>
<path fill-rule="evenodd" clip-rule="evenodd" d="M561.021 844.733C564.438 840.985 566.409 834.718 576.811 825.62C586.622 804.476 602.397 796.234 604.114 794.053C599.534 794.334 595.965 795.156 592.109 796.325C592.907 793.855 595.014 791.29 595.277 789.844C580.018 797.608 561.714 827.102 561.021 844.733Z" fill="white"/>
<path fill-rule="evenodd" clip-rule="evenodd" d="M763.014 735.866C764.736 737.19 772.65 741.064 777.39 744.711C790.486 741.742 805.61 747.498 815.623 755.27C807.711 742.55 776.043 729.6 763.014 735.866Z" fill="white"/>
<path fill-rule="evenodd" clip-rule="evenodd" d="M789.923 964.149C793.606 964.783 800.201 962.777 803.104 961.221C804.885 960.267 804.74 960.138 805.062 957.51C805.69 952.402 805.519 943.666 803.351 938.78C802.951 937.878 803.08 938.18 802.809 937.796C800.353 940.723 789.215 959.458 789.924 964.15L789.923 964.149Z" fill="white"/>
<path fill-rule="evenodd" clip-rule="evenodd" d="M841.976 933.097C846.374 931.235 856.259 918.38 857.039 910.431C853.363 909.257 849.303 904.948 845.641 903.384C845.889 912.996 845.997 916.15 842.702 925.474C841.199 929.726 842.016 928.977 841.977 933.099L841.976 933.097Z" fill="white"/>
<path fill-rule="evenodd" clip-rule="evenodd" d="M841.262 806.888L860.658 822.578C860.412 812.589 855.895 803.829 848.83 797.817C847.846 796.981 846.717 796.503 846.315 795.654C846.006 798.541 846.215 799.973 844.904 802.419C844.411 803.34 843.776 804.225 843.339 804.719C842.991 805.113 842.739 805.305 842.386 805.655C841.558 806.48 841.977 805.845 841.262 806.887V806.888Z" fill="white"/>
<path fill-rule="evenodd" clip-rule="evenodd" d="M794.247 911.92C793.246 915.926 790.555 929.842 791.397 933.629L791.822 933.701C792.238 933.598 792.003 933.769 792.529 933.437C796.912 930.651 806.755 916.667 808.175 910.323C803.345 911.034 799.335 911.922 794.247 911.919V911.92Z" fill="white"/>
<path fill-rule="evenodd" clip-rule="evenodd" d="M828.231 957.735C830.212 958.42 835.555 960.765 837.37 960.91C840.057 954.533 838.268 946.25 836.52 940.147C835.879 940.697 836.309 940.221 835.727 940.989L832.02 948.394C830.694 951.039 828.665 954.746 828.231 957.736V957.735Z" fill="white"/>
<path fill-rule="evenodd" clip-rule="evenodd" d="M728.213 892.697C727.497 894.459 726.116 895.973 725.954 898.066C733.724 901.457 747.539 896.367 751.688 889.348C742.015 892.096 738.936 892.486 728.213 892.697Z" fill="white"/>
<path fill-rule="evenodd" clip-rule="evenodd" d="M772.035 729.116C767.472 725.695 749.567 721.918 742.493 722.694C745.231 723.658 753.241 729.451 754.18 729.807C754.351 729.871 769.847 729.179 772.036 729.116H772.035Z" fill="white"/>
<path fill-rule="evenodd" clip-rule="evenodd" d="M761.158 805.221C760.093 804.252 761.541 804.901 759.736 804.731C757.906 804.557 757.187 805.762 752.142 802.868C748.892 801.004 748.195 800.334 746.255 796.822L738.98 796.222C739.641 797.695 741.615 799.999 742.668 801.289C748.501 808.42 754.819 806.824 761.157 805.221H761.158Z" fill="white"/>
</g>
<defs>
<filter id="filter0_f_1_2774" x="215" y="393" width="1010" height="1010" filterUnits="userSpaceOnUse" color-interpolation-filters="sRGB">
<feFlood flood-opacity="0" result="BackgroundImageFix"/>
<feBlend mode="normal" in="SourceGraphic" in2="BackgroundImageFix" result="shape"/>
<feGaussianBlur stdDeviation="150" result="effect1_foregroundBlur_1_2774"/>
</filter>
<filter id="filter1_f_1_2774" x="551.021" y="692.762" width="338.19" height="410.448" filterUnits="userSpaceOnUse" color-interpolation-filters="sRGB">
<feFlood flood-opacity="0" result="BackgroundImageFix"/>
<feBlend mode="normal" in="SourceGraphic" in2="BackgroundImageFix" result="shape"/>
<feGaussianBlur stdDeviation="5" result="effect1_foregroundBlur_1_2774"/>
</filter>
<linearGradient id="paint0_linear_1_2774" x1="720" y1="0" x2="720" y2="1286" gradientUnits="userSpaceOnUse">
<stop stop-color="#643ADE"/>
<stop offset="1" stop-color="#010921"/>
</linearGradient>
<linearGradient id="paint1_linear_1_2774" x1="893" y1="0" x2="893" y2="566.5" gradientUnits="userSpaceOnUse">
<stop stop-color="white" stop-opacity="0"/>
<stop offset="1" stop-color="#999999"/>
<stop offset="1.0001" stop-color="white"/>
</linearGradient>
<linearGradient id="paint2_linear_1_2774" x1="893" y1="0" x2="893" y2="413.5" gradientUnits="userSpaceOnUse">
<stop stop-color="white" stop-opacity="0"/>
<stop offset="1" stop-color="white"/>
</linearGradient>
</defs>
</svg>
