<svg width="20" height="20" viewBox="0 0 20 20" fill="none" xmlns="http://www.w3.org/2000/svg">
<path d="M2 4.13446C2 3.61965 2.18019 3.19494 2.54054 2.86033C2.9009 2.5257 3.36937 2.3584 3.94595 2.3584C4.51223 2.3584 4.97039 2.52312 5.32046 2.85261C5.68082 3.19238 5.861 3.63509 5.861 4.18079C5.861 4.675 5.68598 5.08683 5.33591 5.41631C4.97555 5.75608 4.50193 5.92597 3.91506 5.92597H3.89961C3.33333 5.92597 2.87517 5.75608 2.5251 5.41631C2.17503 5.07654 2 4.64926 2 4.13446ZM2.20077 17.648V7.33137H5.62934V17.648H2.20077ZM7.52896 17.648H10.9575V11.8874C10.9575 11.527 10.9987 11.249 11.0811 11.0534C11.2252 10.7033 11.444 10.4073 11.7375 10.1653C12.0309 9.92339 12.399 9.80241 12.8417 9.80241C13.9949 9.80241 14.5714 10.5798 14.5714 12.1345V17.648H18V11.7329C18 10.2091 17.6396 9.05338 16.9189 8.26573C16.1982 7.47809 15.2458 7.08427 14.0618 7.08427C12.7336 7.08427 11.6988 7.65569 10.9575 8.79855V8.82944H10.9421L10.9575 8.79855V7.33137H7.52896C7.54954 7.66084 7.55985 8.68529 7.55985 10.4047C7.55985 12.1242 7.54954 14.5386 7.52896 17.648Z" fill="url(#paint0_linear_1_2839)"/>
<path d="M2 4.13446C2 3.61965 2.18019 3.19494 2.54054 2.86033C2.9009 2.5257 3.36937 2.3584 3.94595 2.3584C4.51223 2.3584 4.97039 2.52312 5.32046 2.85261C5.68082 3.19238 5.861 3.63509 5.861 4.18079C5.861 4.675 5.68598 5.08683 5.33591 5.41631C4.97555 5.75608 4.50193 5.92597 3.91506 5.92597H3.89961C3.33333 5.92597 2.87517 5.75608 2.5251 5.41631C2.17503 5.07654 2 4.64926 2 4.13446ZM2.20077 17.648V7.33137H5.62934V17.648H2.20077ZM7.52896 17.648H10.9575V11.8874C10.9575 11.527 10.9987 11.249 11.0811 11.0534C11.2252 10.7033 11.444 10.4073 11.7375 10.1653C12.0309 9.92339 12.399 9.80241 12.8417 9.80241C13.9949 9.80241 14.5714 10.5798 14.5714 12.1345V17.648H18V11.7329C18 10.2091 17.6396 9.05338 16.9189 8.26573C16.1982 7.47809 15.2458 7.08427 14.0618 7.08427C12.7336 7.08427 11.6988 7.65569 10.9575 8.79855V8.82944H10.9421L10.9575 8.79855V7.33137H7.52896C7.54954 7.66084 7.55985 8.68529 7.55985 10.4047C7.55985 12.1242 7.54954 14.5386 7.52896 17.648Z" fill="white"/>
<defs>
<linearGradient id="paint0_linear_1_2839" x1="10" y1="2.3584" x2="10" y2="17.648" gradientUnits="userSpaceOnUse">
<stop stop-color="#5BCD9D"/>
<stop offset="1" stop-color="#5BBFCD"/>
</linearGradient>
</defs>
</svg>
