<svg width="20" height="20" viewBox="0 0 20 20" fill="none" xmlns="http://www.w3.org/2000/svg">
<path d="M5.152 3.11133H14.8409V16.8891H13.4187V10.578H13.4047C13.2475 8.83375 11.7816 7.46688 9.99644 7.46688C8.21127 7.46688 6.74535 8.83375 6.58817 10.578H6.57422V16.8891H5.152V3.11133Z" fill="white"/>
<path d="M2.57422 5.06688L3.152 7.02244H3.64089V14.9336C3.39543 14.9336 3.19644 15.1325 3.19644 15.378V15.9113H3.10755C2.86209 15.9113 2.66311 16.1103 2.66311 16.3558V16.8891H7.64088V16.3558C7.64088 16.1103 7.4419 15.9113 7.19644 15.9113H7.10755V15.378C7.10755 15.1325 6.90857 14.9336 6.66311 14.9336H6.12977V5.06688H2.57422Z" fill="white"/>
<path d="M13.5076 14.9336C13.2621 14.9336 13.0631 15.1325 13.0631 15.378V15.9113H12.9742C12.7288 15.9113 12.5298 16.1103 12.5298 16.3558V16.8891H17.5076V16.3558C17.5076 16.1103 17.3086 15.9113 17.0631 15.9113H16.9742V15.378C16.9742 15.1325 16.7752 14.9336 16.5298 14.9336V7.02244H17.0187L17.5964 5.06688H14.0409V14.9336H13.5076Z" fill="white"/>
</svg>
