<svg width="20" height="20" viewBox="0 0 20 20" fill="none" xmlns="http://www.w3.org/2000/svg">
<path d="M15.337 5.67229C14.2633 5.17963 13.1119 4.81667 11.9081 4.60878C11.8862 4.60477 11.8643 4.6148 11.853 4.63485C11.7049 4.89822 11.5409 5.2418 11.426 5.51185C10.1312 5.31801 8.84306 5.31801 7.57481 5.51185C7.45993 5.23579 7.28995 4.89822 7.14121 4.63485C7.12992 4.61547 7.10802 4.60544 7.0861 4.60878C5.88293 4.816 4.73157 5.17897 3.65721 5.67229C3.64791 5.6763 3.63994 5.68299 3.63465 5.69167C1.45075 8.95438 0.852482 12.1369 1.14597 15.2799C1.1473 15.2953 1.15593 15.31 1.16788 15.3194C2.60876 16.3775 4.0045 17.0199 5.37431 17.4457C5.39624 17.4524 5.41946 17.4444 5.43341 17.4263C5.75745 16.9838 6.04629 16.5172 6.29395 16.0266C6.30856 15.9979 6.29461 15.9638 6.26474 15.9524C5.80658 15.7786 5.37033 15.5667 4.95068 15.3261C4.91749 15.3067 4.91483 15.2592 4.94536 15.2365C5.03367 15.1703 5.12201 15.1014 5.20633 15.0319C5.22159 15.0192 5.24284 15.0166 5.26078 15.0246C8.01769 16.2833 11.0024 16.2833 13.7267 15.0246C13.7447 15.0159 13.7659 15.0186 13.7819 15.0313C13.8662 15.1008 13.9545 15.1703 14.0435 15.2365C14.074 15.2592 14.072 15.3067 14.0388 15.3261C13.6192 15.5714 13.1829 15.7786 12.7241 15.9517C12.6942 15.9631 12.681 15.9979 12.6956 16.0266C12.9485 16.5166 13.2374 16.9831 13.5554 17.4257C13.5687 17.4444 13.5926 17.4524 13.6145 17.4457C14.991 17.0199 16.3867 16.3775 17.8276 15.3194C17.8402 15.31 17.8482 15.296 17.8495 15.2806C18.2008 11.6469 17.2612 8.49048 15.3589 5.69234C15.3542 5.68299 15.3463 5.6763 15.337 5.67229ZM6.70565 13.3662C5.87563 13.3662 5.19171 12.6041 5.19171 11.6683C5.19171 10.7325 5.86236 9.97043 6.70565 9.97043C7.55555 9.97043 8.23284 10.7391 8.21955 11.6683C8.21955 12.6041 7.5489 13.3662 6.70565 13.3662ZM12.3031 13.3662C11.4731 13.3662 10.7892 12.6041 10.7892 11.6683C10.7892 10.7325 11.4599 9.97043 12.3031 9.97043C13.1531 9.97043 13.8303 10.7391 13.8171 11.6683C13.8171 12.6041 13.1531 13.3662 12.3031 13.3662Z" fill="white"/>
</svg>
