<svg width="98" height="98" viewBox="0 0 98 98" fill="none" xmlns="http://www.w3.org/2000/svg">
<g opacity="0.5" filter="url(#filter0_f_1_229)">
<circle cx="49" cy="49" r="11" fill="#6B78F5"/>
</g>
<path d="M58.25 45.3333V48.9999H56.4167V46.2499H51.8333V41.6666H43.5833V56.3333H49.0833V58.1666H42.6603C42.419 58.1666 42.1876 58.0708 42.0169 57.9003C41.8463 57.7298 41.7502 57.4985 41.75 57.2572V40.7426C41.75 40.2503 42.1616 39.8333 42.6685 39.8333H52.7472L58.25 45.3333ZM51.6372 52.0497C51.6729 51.3833 52.1872 50.8406 52.8508 50.77L53.6483 50.6857C53.7434 50.6757 53.8329 50.6359 53.9041 50.572L54.5008 50.0358C54.7413 49.8199 55.0507 49.6967 55.3738 49.6883C55.6968 49.6799 56.0123 49.7868 56.2636 49.9899L56.8887 50.4941C56.9621 50.5537 57.0537 50.5885 57.1491 50.594L57.9502 50.6371C58.6167 50.6728 59.1593 51.1871 59.2299 51.8508L59.3142 52.6483C59.3242 52.7434 59.364 52.8329 59.4279 52.904L59.9642 53.5008C60.4106 53.9976 60.4298 54.7447 60.01 55.2635L59.5058 55.8887C59.446 55.9628 59.4111 56.0539 59.4059 56.149L59.3628 56.9502C59.3457 57.2729 59.2141 57.579 58.9917 57.8135C58.7693 58.048 58.4706 58.1956 58.1492 58.2298L57.3517 58.3142C57.2566 58.3242 57.1671 58.3639 57.0959 58.4278L56.4992 58.9641C56.2587 59.18 55.9493 59.3032 55.6262 59.3116C55.3032 59.32 54.9877 59.213 54.7364 59.0099L54.1112 58.5058C54.0371 58.4459 53.946 58.411 53.8509 58.4058L53.0497 58.3628C52.727 58.3456 52.4209 58.214 52.1864 57.9916C51.9519 57.7692 51.8043 57.4705 51.7701 57.1491L51.6857 56.3516C51.6758 56.2565 51.636 56.167 51.5721 56.0958L51.0358 55.4991C50.8199 55.2587 50.6967 54.9492 50.6883 54.6261C50.6799 54.3031 50.7869 53.9877 50.99 53.7363L51.4942 53.1112C51.554 53.037 51.5889 52.9459 51.5941 52.8508L51.6372 52.0497ZM58.2775 53.6108L57.3058 52.6391L55.0417 54.9033L53.6942 53.5558L52.7225 54.5274L55.0417 56.8466L58.2775 53.6108Z" fill="#FFA4A4"/>
<defs>
<filter id="filter0_f_1_229" x="0.5" y="0.5" width="97" height="97" filterUnits="userSpaceOnUse" color-interpolation-filters="sRGB">
<feFlood flood-opacity="0" result="BackgroundImageFix"/>
<feBlend mode="normal" in="SourceGraphic" in2="BackgroundImageFix" result="shape"/>
<feGaussianBlur stdDeviation="18.75" result="effect1_foregroundBlur_1_229"/>
</filter>
</defs>
</svg>
