<svg width="66" height="64" viewBox="0 0 66 64" fill="none" xmlns="http://www.w3.org/2000/svg">
<g opacity="0.5" filter="url(#filter0_f_1_412)">
<ellipse cx="33" cy="32.2308" rx="10" ry="9.23077" fill="#6B78F5"/>
</g>
<path fill-rule="evenodd" clip-rule="evenodd" d="M33.392 35.2131C33.1718 35.081 32.9819 34.9101 32.8332 34.7103C32.6845 34.5104 32.5799 34.2855 32.5254 34.0483C32.4709 33.8111 32.4675 33.5663 32.5155 33.328C32.5635 33.0896 32.6619 32.8623 32.805 32.659L34.986 29.5639C35.1268 29.356 35.3111 29.1761 35.5281 29.0347C35.7451 28.8932 35.9904 28.7931 36.2497 28.7402C36.5091 28.6872 36.7772 28.6824 37.0386 28.7262C37.2999 28.7699 37.5492 28.8613 37.7719 28.9949C37.9946 29.1286 38.1862 29.3018 38.3356 29.5046C38.485 29.7073 38.5891 29.9355 38.6419 30.1758C38.6947 30.4161 38.6951 30.6637 38.6431 30.9041C38.5911 31.1446 38.4877 31.3731 38.339 31.5762L36.159 34.6722C35.8698 35.0826 35.4158 35.3702 34.8969 35.4716C34.378 35.5731 33.8366 35.4801 33.392 35.2131ZM30.95 35.3996C30.6143 34.8172 30.4538 34.1623 30.4853 33.5032C30.5168 32.8441 30.7391 32.2048 31.129 31.6519L33.309 28.5568C33.8874 27.7358 34.7955 27.1606 35.8334 26.9576C36.3473 26.8571 36.8777 26.851 37.3942 26.9397C37.9106 27.0284 38.4031 27.2101 38.8435 27.4745C39.2839 27.7389 39.6636 28.0808 39.9608 28.4806C40.2581 28.8804 40.4671 29.3304 40.576 29.8048C40.6849 30.2791 40.6914 30.7687 40.5954 31.2454C40.4993 31.7222 40.3024 32.1768 40.016 32.5833L37.836 35.6784C37.4567 36.2172 36.9316 36.6553 36.3126 36.9494C35.6936 37.2435 35.0022 37.3834 34.3067 37.3552C33.6112 37.3271 32.9357 37.1319 32.347 36.7889C31.7583 36.4459 31.2768 35.967 30.95 35.3996Z" fill="url(#paint0_linear_1_412)"/>
<path fill-rule="evenodd" clip-rule="evenodd" d="M28.444 38.8491C28.2238 38.717 28.0339 38.5462 27.8852 38.3463C27.7365 38.1464 27.6319 37.9215 27.5774 37.6843C27.5229 37.4471 27.5195 37.2024 27.5675 36.964C27.6155 36.7256 27.7139 36.4983 27.857 36.295L30.038 33.1999C30.1788 32.992 30.3631 32.8121 30.5801 32.6707C30.7971 32.5293 31.0424 32.4291 31.3017 32.3762C31.5611 32.3232 31.8292 32.3185 32.0906 32.3622C32.3519 32.4059 32.6012 32.4973 32.8239 32.631C33.0466 32.7646 33.2382 32.9379 33.3876 33.1406C33.537 33.3433 33.6411 33.5715 33.6939 33.8118C33.7467 34.0521 33.7471 34.2997 33.6951 34.5401C33.6431 34.7806 33.5397 35.0091 33.391 35.2122L31.211 38.3082C30.9218 38.7186 30.4678 39.0062 29.9489 39.1077C29.43 39.2091 28.8886 39.1161 28.444 38.8491ZM26.002 39.0356C25.6663 38.4532 25.5058 37.7983 25.5373 37.1392C25.5688 36.4801 25.7911 35.8408 26.181 35.2879L28.361 32.1938C28.6474 31.7872 29.0176 31.4368 29.4507 31.1624C29.8838 30.8879 30.3712 30.695 30.8851 30.5944C31.399 30.4939 31.9293 30.4877 32.4457 30.5764C32.9621 30.665 33.4546 30.8467 33.895 31.111C34.3354 31.3753 34.7151 31.7171 35.0124 32.1169C35.3096 32.5166 35.5187 32.9665 35.6276 33.4409C35.7366 33.9152 35.7432 34.4048 35.6472 34.8815C35.5512 35.3582 35.3544 35.8128 35.068 36.2193L32.888 39.3144C32.5087 39.8532 31.9836 40.2913 31.3646 40.5854C30.7456 40.8795 30.0542 41.0194 29.3587 40.9912C28.6632 40.9631 27.9877 40.7679 27.399 40.4249C26.8103 40.0819 26.3288 39.603 26.002 39.0356Z" fill="url(#paint1_linear_1_412)"/>
<defs>
<filter id="filter0_f_1_412" x="0.5" y="0.5" width="65" height="63.4614" filterUnits="userSpaceOnUse" color-interpolation-filters="sRGB">
<feFlood flood-opacity="0" result="BackgroundImageFix"/>
<feBlend mode="normal" in="SourceGraphic" in2="BackgroundImageFix" result="shape"/>
<feGaussianBlur stdDeviation="11.25" result="effect1_foregroundBlur_1_412"/>
</filter>
<linearGradient id="paint0_linear_1_412" x1="35.5721" y1="26.8774" x2="35.5721" y2="37.3588" gradientUnits="userSpaceOnUse">
<stop offset="1" stop-color="#6C7AF6"/>
<stop stop-color="#6CC6F6"/>
</linearGradient>
<linearGradient id="paint1_linear_1_412" x1="30.624" y1="30.5142" x2="30.624" y2="40.9948" gradientUnits="userSpaceOnUse">
<stop offset="1" stop-color="#6C7AF6"/>
<stop stop-color="#6CC6F6"/>
</linearGradient>
</defs>
</svg>
