<svg width="91" height="22" viewBox="0 0 91 22" fill="none" xmlns="http://www.w3.org/2000/svg">
<path d="M90.7071 11.7071C91.0976 11.3166 91.0976 10.6834 90.7071 10.2929L84.3431 3.92893C83.9526 3.53841 83.3195 3.53841 82.9289 3.92893C82.5384 4.31946 82.5384 4.95262 82.9289 5.34315L88.5858 11L82.9289 16.6569C82.5384 17.0474 82.5384 17.6805 82.9289 18.0711C83.3195 18.4616 83.9526 18.4616 84.3431 18.0711L90.7071 11.7071ZM0 12H90V10H0V12Z" fill="url(#paint0_linear_1_361)"/>
<path opacity="0.79" d="M64.2857 12C64.838 12 65.2857 11.5523 65.2857 11C65.2857 10.4477 64.838 9.99999 64.2857 9.99999L64.2857 12ZM16.5306 12L64.2857 12L64.2857 9.99999L16.5306 10L16.5306 12Z" fill="url(#paint1_linear_1_361)"/>
<g filter="url(#filter0_f_1_361)">
<ellipse cx="63.3673" cy="11" rx="11.0204" ry="5.5" fill="#62CB79"/>
</g>
<g filter="url(#filter1_f_1_361)">
<ellipse cx="62.9079" cy="11" rx="7.80612" ry="2.5" fill="#B8ECF6"/>
</g>
<defs>
<filter id="filter0_f_1_361" x="47.3469" y="0.5" width="32.0408" height="21" filterUnits="userSpaceOnUse" color-interpolation-filters="sRGB">
<feFlood flood-opacity="0" result="BackgroundImageFix"/>
<feBlend mode="normal" in="SourceGraphic" in2="BackgroundImageFix" result="shape"/>
<feGaussianBlur stdDeviation="2.5" result="effect1_foregroundBlur_1_361"/>
</filter>
<filter id="filter1_f_1_361" x="53.1018" y="6.5" width="19.6122" height="9" filterUnits="userSpaceOnUse" color-interpolation-filters="sRGB">
<feFlood flood-opacity="0" result="BackgroundImageFix"/>
<feBlend mode="normal" in="SourceGraphic" in2="BackgroundImageFix" result="shape"/>
<feGaussianBlur stdDeviation="1" result="effect1_foregroundBlur_1_361"/>
</filter>
<linearGradient id="paint0_linear_1_361" x1="0" y1="11.5" x2="90" y2="11.5" gradientUnits="userSpaceOnUse">
<stop stop-color="#A6DB64" stop-opacity="0"/>
<stop offset="1" stop-color="#72CF76" stop-opacity="0.4"/>
</linearGradient>
<linearGradient id="paint1_linear_1_361" x1="64.2857" y1="11" x2="63.7077" y2="16.2218" gradientUnits="userSpaceOnUse">
<stop offset="0.191968" stop-color="white"/>
<stop offset="0.81245" stop-color="#62CB79" stop-opacity="0"/>
</linearGradient>
</defs>
</svg>
