<svg width="63" height="18" viewBox="0 0 63 18" fill="none" xmlns="http://www.w3.org/2000/svg">
<path d="M0.988281 16.888V14.9737L10.5594 3.15077V3.03787H1.32636V1.12354H13.1493V3.03787L3.57818 14.8608V14.9737H13.2616V16.888H0.988281Z" fill="white"/>
<path d="M15.1756 16.8884V1.12451H16.977V10.1323H19.2289L22.8324 5.62812H24.9719L20.8058 10.9202L25.31 16.8877H23.0582L19.2295 11.8209H16.9777V16.8877H15.1762L15.1756 16.8884Z" fill="white"/>
<path d="M26.5514 16.8884L30.6047 1.12451H36.7975L40.8513 16.8884H38.8247L37.5859 12.2719H29.8162L28.5774 16.8884H26.5508H26.5514ZM30.2672 10.3575H37.1355L35.2212 3.03824H32.1809L30.2666 10.3575H30.2672Z" fill="white"/>
<path d="M60.6133 16.8884V1.12451H62.6399V16.8884H60.6133Z" fill="white"/>
<path d="M58.9448 8.66533H52.4998V10.576H55.6155C55.4861 11.2135 55.2769 11.8062 54.9811 12.3504C54.4553 13.3186 53.7202 14.0733 52.7741 14.6139C51.8279 15.1544 50.7622 15.4244 49.5761 15.4244C48.3901 15.4244 47.3243 15.1538 46.3782 14.6139C45.4321 14.0733 44.6964 13.3193 44.1712 12.3504C43.6453 11.3822 43.3827 10.2674 43.3827 9.00647C43.3827 7.74558 43.6453 6.63073 44.1712 5.66252C44.6964 4.6943 45.4321 3.93961 46.3782 3.39906C47.3243 2.8585 48.3901 2.58853 49.5761 2.58853C50.7622 2.58853 51.8279 2.8585 52.7741 3.39906C53.7202 3.93961 54.4553 4.69369 54.9811 5.66252C55.0965 5.87481 55.1965 6.09508 55.2861 6.32149H57.409C57.2378 5.7613 57.012 5.22565 56.7261 4.717C56.0125 3.44876 55.0333 2.45784 53.7871 1.74426C52.5409 1.03129 51.1371 0.674805 49.5755 0.674805C48.014 0.674805 46.6101 1.03129 45.364 1.74426C44.1178 2.45723 43.1379 3.44814 42.4249 4.717C41.7113 5.98587 41.3555 7.4161 41.3555 9.00708C41.3555 10.5981 41.712 12.0283 42.4249 13.2972C43.1379 14.566 44.1172 15.5569 45.364 16.2699C46.6101 16.9829 48.0134 17.3394 49.5755 17.3394C51.1377 17.3394 52.5403 16.9823 53.7871 16.2699C55.0333 15.5569 56.0125 14.566 56.7261 13.2972C57.1961 12.4609 57.5078 11.5534 57.6679 10.5766H58.9442V8.66594L58.9448 8.66533Z" fill="white"/>
</svg>
