<svg width="129" height="22" viewBox="0 0 129 22" fill="none" xmlns="http://www.w3.org/2000/svg">
<path d="M128.707 11.7071C129.098 11.3166 129.098 10.6834 128.707 10.2929L122.343 3.92892C121.953 3.5384 121.319 3.5384 120.929 3.92892C120.538 4.31945 120.538 4.95261 120.929 5.34313L126.586 11L120.929 16.6568C120.538 17.0474 120.538 17.6805 120.929 18.0711C121.319 18.4616 121.953 18.4616 122.343 18.0711L128.707 11.7071ZM9.56187e-08 12L128 12L128 9.99999L-9.56187e-08 10L9.56187e-08 12Z" fill="url(#paint0_linear_1_354)"/>
<path opacity="0.79" d="M107 12C107.552 12 108 11.5523 108 11C108 10.4477 107.552 9.99999 107 9.99999L107 12ZM16 12L107 12L107 9.99999L16 10L16 12Z" fill="url(#paint1_linear_1_354)"/>
<g filter="url(#filter0_f_1_354)">
<ellipse cx="101" cy="11" rx="12" ry="5.5" fill="#8069F4"/>
</g>
<g filter="url(#filter1_f_1_354)">
<ellipse cx="100.5" cy="11" rx="8.5" ry="2.5" fill="#B8ECF6"/>
</g>
<defs>
<filter id="filter0_f_1_354" x="84" y="0.5" width="34" height="21" filterUnits="userSpaceOnUse" color-interpolation-filters="sRGB">
<feFlood flood-opacity="0" result="BackgroundImageFix"/>
<feBlend mode="normal" in="SourceGraphic" in2="BackgroundImageFix" result="shape"/>
<feGaussianBlur stdDeviation="2.5" result="effect1_foregroundBlur_1_354"/>
</filter>
<filter id="filter1_f_1_354" x="90" y="6.5" width="21" height="9" filterUnits="userSpaceOnUse" color-interpolation-filters="sRGB">
<feFlood flood-opacity="0" result="BackgroundImageFix"/>
<feBlend mode="normal" in="SourceGraphic" in2="BackgroundImageFix" result="shape"/>
<feGaussianBlur stdDeviation="1" result="effect1_foregroundBlur_1_354"/>
</filter>
<linearGradient id="paint0_linear_1_354" x1="4.78093e-08" y1="11.5" x2="128" y2="11.5" gradientUnits="userSpaceOnUse">
<stop stop-color="#433BAF" stop-opacity="0.3"/>
<stop offset="1" stop-color="#8069F4" stop-opacity="0.4"/>
</linearGradient>
<linearGradient id="paint1_linear_1_354" x1="107" y1="11" x2="106.694" y2="16.268" gradientUnits="userSpaceOnUse">
<stop offset="0.191968" stop-color="white"/>
<stop offset="0.81245" stop-color="#654CFD" stop-opacity="0"/>
</linearGradient>
</defs>
</svg>
