<svg width="70" height="70" viewBox="0 0 70 70" fill="none" xmlns="http://www.w3.org/2000/svg">
<g opacity="0.5" filter="url(#filter0_f_1_196)">
<circle cx="35" cy="35" r="12" fill="#B9E05E"/>
</g>
<path d="M41.4 40.2H41.9C41.9 39.7357 41.732 39.3249 41.404 38.9968C41.076 38.6689 40.6651 38.5007 40.2008 38.5H40.2C39.7354 38.5 39.3244 38.6686 38.9964 38.9973C38.6692 39.3253 38.5007 39.7355 38.5 40.1992V40.2C38.5 40.6646 38.6685 41.0756 38.9968 41.404C39.3252 41.7323 39.7362 41.9007 40.2008 41.9L40.2 41.4M41.4 40.2L41.9 40.1992C41.9007 40.6644 41.7326 41.0761 41.4035 41.4044C41.0752 41.732 40.6642 41.9 40.2 41.9V41.4M41.4 40.2C41.4005 40.5339 41.284 40.8173 41.0504 41.0504C40.8168 41.2835 40.5333 41.4 40.2 41.4M41.4 40.2C41.4 39.8667 41.2835 39.5835 41.0504 39.3504C40.8173 39.1173 40.5339 39.0005 40.2 39C39.8667 39 39.5835 39.1168 39.3504 39.3504C39.1173 39.584 39.0005 39.8672 39 40.2C39 40.5333 39.1168 40.8168 39.3504 41.0504C39.584 41.284 39.8672 41.4005 40.2 41.4M35.0005 31.5C35.4646 31.4999 35.8753 31.3319 36.2035 31.0044C36.5326 30.6761 36.7007 30.2644 36.7 29.7992L36.2 29.8H36.7C36.7 29.3357 36.532 28.9249 36.204 28.5968C35.876 28.2689 35.4651 28.1007 35.0008 28.1H35C34.5354 28.1 34.1244 28.2686 33.7964 28.5973C33.4692 28.9253 33.3007 29.3355 33.3 29.7992V29.8C33.3 30.2646 33.4685 30.6756 33.7968 31.004C34.1251 31.3322 34.5361 31.5007 35.0005 31.5ZM35.0005 31.5C35.0006 31.5 35.0007 31.5 35.0008 31.5L35 31V31.5C35.0002 31.5 35.0004 31.5 35.0005 31.5ZM31.5 40.1995C31.4999 39.7354 31.3318 39.3247 31.004 38.9968C30.676 38.6689 30.2651 38.5007 29.8008 38.5H29.8C29.3354 38.5 28.9244 38.6686 28.5964 38.9973C28.2692 39.3253 28.1007 39.7355 28.1 40.1992V40.2C28.1 40.6646 28.2685 41.0756 28.5968 41.404C28.9252 41.7323 29.3362 41.9007 29.8008 41.9L29.8 41.4M31.5 40.1995C31.5007 40.6645 31.3325 41.0761 31.0035 41.4044C30.6752 41.732 30.2642 41.9 29.8 41.9V41.4M31.5 40.1995C31.5 40.1996 31.5 40.1998 31.5 40.2H31M31.5 40.1995C31.5 40.1994 31.5 40.1993 31.5 40.1992L31 40.2M29.8 41.4C29.4672 41.4005 29.184 41.284 28.9504 41.0504L31 40.2M29.8 41.4C30.1333 41.4 30.4168 41.2835 30.6504 41.0504C30.884 40.8173 31.0005 40.5339 31 40.2M30.9038 38.1807L31.231 38.3561L31.4936 38.0936L34.5536 35.0336L34.7 34.8871V34.68V32.48V32.1064L34.3417 32.0005C33.8566 31.8572 33.4658 31.5887 33.1566 31.186C32.8535 30.791 32.7 30.3357 32.7 29.8C32.7 29.1592 32.9207 28.6264 33.3736 28.1736C33.8264 27.7207 34.3592 27.5 35 27.5C35.6408 27.5 36.1736 27.7207 36.6264 28.1736C37.0793 28.6264 37.3 29.1592 37.3 29.8C37.3 30.3351 37.1466 30.7905 36.8432 31.1862C36.5341 31.5893 36.1434 31.8576 35.6587 32.0004L35.3 32.106V32.48V34.68V34.8881L35.4476 35.0347L38.5276 38.0947L38.7895 38.3549L39.1153 38.1812C39.2819 38.0923 39.457 38.0229 39.6413 37.973C39.8171 37.9253 40.003 37.9005 40.2007 37.9C40.8411 37.9002 41.3737 38.1208 41.8264 38.5736C42.2793 39.0264 42.5 39.5592 42.5 40.2C42.5 40.8408 42.2793 41.3736 41.8264 41.8264C41.3736 42.2793 40.8408 42.5 40.2 42.5C39.5592 42.5 39.0264 42.2793 38.5736 41.8264C38.1207 41.3736 37.9 40.8408 37.9 40.2C37.9 40.002 37.9246 39.8115 37.9731 39.6274C38.0232 39.4373 38.0926 39.2606 38.1807 39.0962L38.3561 38.769L38.0936 38.5064L35.3536 35.7664L35 35.4129L34.6464 35.7664L31.9064 38.5064L31.6445 38.7684L31.8188 39.0953C31.9068 39.2603 31.9764 39.4376 32.0272 39.6285C32.076 39.8119 32.1004 40.0016 32.1 40.1989V40.2C32.1 40.8408 31.8793 41.3736 31.4264 41.8264C30.9736 42.2793 30.4408 42.5 29.8 42.5C29.1592 42.5 28.6264 42.2793 28.1736 41.8264L27.8328 42.1672L28.1736 41.8264C27.7207 41.3736 27.5 40.8408 27.5 40.2C27.5 39.5592 27.7207 39.0264 28.1736 38.5736L27.8328 38.2328L28.1736 38.5736C28.6264 38.1207 29.1592 37.9 29.8 37.9C29.998 37.9 30.1885 37.9246 30.3726 37.9731C30.5627 38.0232 30.7394 38.0926 30.9038 38.1807Z" fill="black" stroke="url(#paint0_linear_1_196)"/>
<defs>
<filter id="filter0_f_1_196" x="0.5" y="0.5" width="69" height="69" filterUnits="userSpaceOnUse" color-interpolation-filters="sRGB">
<feFlood flood-opacity="0" result="BackgroundImageFix"/>
<feBlend mode="normal" in="SourceGraphic" in2="BackgroundImageFix" result="shape"/>
<feGaussianBlur stdDeviation="11.25" result="effect1_foregroundBlur_1_196"/>
</filter>
<linearGradient id="paint0_linear_1_196" x1="35" y1="27" x2="35" y2="43" gradientUnits="userSpaceOnUse">
<stop stop-color="#CAE357"/>
<stop offset="1" stop-color="#69CD78"/>
</linearGradient>
</defs>
</svg>
