<svg width="96" height="96" viewBox="0 0 96 96" fill="none" xmlns="http://www.w3.org/2000/svg">
<g opacity="0.5" filter="url(#filter0_f_1_213)">
<circle cx="48" cy="48" r="18" fill="#B9E05E"/>
</g>
<path d="M48 61.5C44.225 61.5 41.0315 60.919 38.4195 59.757C35.8075 58.595 34.501 57.176 34.5 55.5V40.5C34.5 38.85 35.819 37.4375 38.457 36.2625C41.095 35.0875 44.276 34.5 48 34.5C51.725 34.5 54.9065 35.0875 57.5445 36.2625C60.1825 37.4375 61.501 38.85 61.5 40.5V55.5C61.5 57.175 60.1935 58.594 57.5805 59.757C54.9675 60.92 51.774 61.501 48 61.5ZM48 43.5375C50.225 43.5375 52.4625 43.2185 54.7125 42.5805C56.9625 41.9425 58.225 41.2615 58.5 40.5375C58.225 39.8125 56.969 39.125 54.732 38.475C52.495 37.825 50.251 37.5 48 37.5C45.725 37.5 43.494 37.819 41.307 38.457C39.12 39.095 37.851 39.7885 37.5 40.5375C37.85 41.2875 39.119 41.975 41.307 42.6C43.495 43.225 45.726 43.5375 48 43.5375ZM48 51C49.05 51 50.0625 50.95 51.0375 50.85C52.0125 50.75 52.944 50.606 53.832 50.418C54.719 50.231 55.5565 50 56.3445 49.725C57.1325 49.45 57.851 49.1375 58.5 48.7875V44.2875C57.85 44.6375 57.1315 44.95 56.3445 45.225C55.5575 45.5 54.72 45.7315 53.832 45.9195C52.944 46.1065 52.0125 46.25 51.0375 46.35C50.0625 46.45 49.05 46.5 48 46.5C46.95 46.5 45.925 46.45 44.925 46.35C43.925 46.25 42.981 46.106 42.093 45.918C41.206 45.731 40.375 45.5 39.6 45.225C38.825 44.95 38.125 44.6375 37.5 44.2875V48.7875C38.125 49.1375 38.825 49.45 39.6 49.725C40.375 50 41.2065 50.2315 42.0945 50.4195C42.9815 50.6065 43.925 50.75 44.925 50.85C45.925 50.95 46.95 51 48 51ZM48 58.5C49.15 58.5 50.319 58.4125 51.507 58.2375C52.695 58.0625 53.7885 57.8315 54.7875 57.5445C55.7875 57.2565 56.625 56.9315 57.3 56.5695C57.975 56.2075 58.375 55.8385 58.5 55.4625V51.7875C57.85 52.1375 57.1315 52.45 56.3445 52.725C55.5575 53 54.72 53.2315 53.832 53.4195C52.944 53.6065 52.0125 53.75 51.0375 53.85C50.0625 53.95 49.05 54 48 54C46.95 54 45.925 53.95 44.925 53.85C43.925 53.75 42.981 53.606 42.093 53.418C41.206 53.231 40.375 53 39.6 52.725C38.825 52.45 38.125 52.1375 37.5 51.7875V55.5C37.625 55.875 38.019 56.2375 38.682 56.5875C39.345 56.9375 40.176 57.2565 41.175 57.5445C42.175 57.8315 43.275 58.0625 44.475 58.2375C45.675 58.4125 46.85 58.5 48 58.5Z" fill="url(#paint0_linear_1_213)"/>
<g clip-path="url(#clip0_1_213)">
<path d="M75 46.2C72.9867 46.2 71.2835 45.8902 69.8904 45.2704C68.4973 44.6507 67.8005 43.8939 67.8 43V35C67.8 34.12 68.5035 33.3667 69.9104 32.74C71.3173 32.1134 73.0139 31.8 75 31.8C76.9867 31.8 78.6835 32.1134 80.0904 32.74C81.4973 33.3667 82.2005 34.12 82.2 35V43C82.2 43.8934 81.5032 44.6502 80.1096 45.2704C78.716 45.8907 77.0128 46.2006 75 46.2ZM75 36.62C76.1867 36.62 77.38 36.4499 78.58 36.1096C79.78 35.7694 80.4533 35.4062 80.6 35.02C80.4533 34.6334 79.7835 34.2667 78.5904 33.92C77.3973 33.5734 76.2005 33.4 75 33.4C73.7867 33.4 72.5968 33.5702 71.4304 33.9104C70.264 34.2507 69.5872 34.6206 69.4 35.02C69.5867 35.42 70.2635 35.7867 71.4304 36.12C72.5973 36.4534 73.7872 36.62 75 36.62ZM75 40.6C75.56 40.6 76.1 40.5734 76.62 40.52C77.14 40.4667 77.6368 40.3899 78.1104 40.2896C78.5835 40.1899 79.0301 40.0667 79.4504 39.92C79.8707 39.7734 80.2539 39.6067 80.6 39.42V37.02C80.2533 37.2067 79.8701 37.3734 79.4504 37.52C79.0307 37.6667 78.584 37.7902 78.1104 37.8904C77.6368 37.9902 77.14 38.0667 76.62 38.12C76.1 38.1734 75.56 38.2 75 38.2C74.44 38.2 73.8933 38.1734 73.36 38.12C72.8267 38.0667 72.3232 37.9899 71.8496 37.8896C71.3765 37.7899 70.9333 37.6667 70.52 37.52C70.1067 37.3734 69.7333 37.2067 69.4 37.02V39.42C69.7333 39.6067 70.1067 39.7734 70.52 39.92C70.9333 40.0667 71.3768 40.1902 71.8504 40.2904C72.3235 40.3902 72.8267 40.4667 73.36 40.52C73.8933 40.5734 74.44 40.6 75 40.6ZM75 44.6C75.6133 44.6 76.2368 44.5534 76.8704 44.46C77.504 44.3667 78.0872 44.2435 78.62 44.0904C79.1533 43.9368 79.6 43.7635 79.96 43.5704C80.32 43.3774 80.5333 43.1806 80.6 42.98V41.02C80.2533 41.2067 79.8701 41.3734 79.4504 41.52C79.0307 41.6667 78.584 41.7902 78.1104 41.8904C77.6368 41.9902 77.14 42.0667 76.62 42.12C76.1 42.1734 75.56 42.2 75 42.2C74.44 42.2 73.8933 42.1734 73.36 42.12C72.8267 42.0667 72.3232 41.9899 71.8496 41.8896C71.3765 41.7899 70.9333 41.6667 70.52 41.52C70.1067 41.3734 69.7333 41.2067 69.4 41.02V43C69.4667 43.2 69.6768 43.3934 70.0304 43.58C70.384 43.7667 70.8272 43.9368 71.36 44.0904C71.8933 44.2435 72.48 44.3667 73.12 44.46C73.76 44.5534 74.3867 44.6 75 44.6Z" fill="url(#paint1_linear_1_213)"/>
</g>
<g clip-path="url(#clip1_1_213)">
<path d="M21 44.2C18.9867 44.2 17.2835 43.8902 15.8904 43.2704C14.4973 42.6507 13.8005 41.8939 13.8 41V33C13.8 32.12 14.5035 31.3667 15.9104 30.74C17.3173 30.1134 19.0139 29.8 21 29.8C22.9867 29.8 24.6835 30.1134 26.0904 30.74C27.4973 31.3667 28.2005 32.12 28.2 33V41C28.2 41.8934 27.5032 42.6502 26.1096 43.2704C24.716 43.8907 23.0128 44.2006 21 44.2ZM21 34.62C22.1867 34.62 23.38 34.4499 24.58 34.1096C25.78 33.7694 26.4533 33.4062 26.6 33.02C26.4533 32.6334 25.7835 32.2667 24.5904 31.92C23.3973 31.5734 22.2005 31.4 21 31.4C19.7867 31.4 18.5968 31.5702 17.4304 31.9104C16.264 32.2507 15.5872 32.6206 15.4 33.02C15.5867 33.42 16.2635 33.7867 17.4304 34.12C18.5973 34.4534 19.7872 34.62 21 34.62ZM21 38.6C21.56 38.6 22.1 38.5734 22.62 38.52C23.14 38.4667 23.6368 38.3899 24.1104 38.2896C24.5835 38.1899 25.0301 38.0667 25.4504 37.92C25.8707 37.7734 26.2539 37.6067 26.6 37.42V35.02C26.2533 35.2067 25.8701 35.3734 25.4504 35.52C25.0307 35.6667 24.584 35.7902 24.1104 35.8904C23.6368 35.9902 23.14 36.0667 22.62 36.12C22.1 36.1734 21.56 36.2 21 36.2C20.44 36.2 19.8933 36.1734 19.36 36.12C18.8267 36.0667 18.3232 35.9899 17.8496 35.8896C17.3765 35.7899 16.9333 35.6667 16.52 35.52C16.1067 35.3734 15.7333 35.2067 15.4 35.02V37.42C15.7333 37.6067 16.1067 37.7734 16.52 37.92C16.9333 38.0667 17.3768 38.1902 17.8504 38.2904C18.3235 38.3902 18.8267 38.4667 19.36 38.52C19.8933 38.5734 20.44 38.6 21 38.6ZM21 42.6C21.6133 42.6 22.2368 42.5534 22.8704 42.46C23.504 42.3667 24.0872 42.2435 24.62 42.0904C25.1533 41.9368 25.6 41.7635 25.96 41.5704C26.32 41.3774 26.5333 41.1806 26.6 40.98V39.02C26.2533 39.2067 25.8701 39.3734 25.4504 39.52C25.0307 39.6667 24.584 39.7902 24.1104 39.8904C23.6368 39.9902 23.14 40.0667 22.62 40.12C22.1 40.1734 21.56 40.2 21 40.2C20.44 40.2 19.8933 40.1734 19.36 40.12C18.8267 40.0667 18.3232 39.9899 17.8496 39.8896C17.3765 39.7899 16.9333 39.6667 16.52 39.52C16.1067 39.3734 15.7333 39.2067 15.4 39.02V41C15.4667 41.2 15.6768 41.3934 16.0304 41.58C16.384 41.7667 16.8272 41.9368 17.36 42.0904C17.8933 42.2435 18.48 42.3667 19.12 42.46C19.76 42.5534 20.3867 42.6 21 42.6Z" fill="url(#paint2_linear_1_213)"/>
</g>
<defs>
<filter id="filter0_f_1_213" x="0" y="0" width="96" height="96" filterUnits="userSpaceOnUse" color-interpolation-filters="sRGB">
<feFlood flood-opacity="0" result="BackgroundImageFix"/>
<feBlend mode="normal" in="SourceGraphic" in2="BackgroundImageFix" result="shape"/>
<feGaussianBlur stdDeviation="15" result="effect1_foregroundBlur_1_213"/>
</filter>
<linearGradient id="paint0_linear_1_213" x1="48" y1="34.5" x2="48" y2="61.5" gradientUnits="userSpaceOnUse">
<stop stop-color="#CAE357"/>
<stop offset="1" stop-color="#69CD78"/>
</linearGradient>
<linearGradient id="paint1_linear_1_213" x1="75" y1="31.8" x2="75" y2="46.2" gradientUnits="userSpaceOnUse">
<stop stop-color="#CAE357"/>
<stop offset="1" stop-color="#69CD78"/>
</linearGradient>
<linearGradient id="paint2_linear_1_213" x1="21" y1="29.8" x2="21" y2="44.2" gradientUnits="userSpaceOnUse">
<stop stop-color="#CAE357"/>
<stop offset="1" stop-color="#69CD78"/>
</linearGradient>
<clipPath id="clip0_1_213">
<rect width="16" height="16" fill="white" transform="translate(67 31)"/>
</clipPath>
<clipPath id="clip1_1_213">
<rect width="16" height="16" fill="white" transform="translate(13 29)"/>
</clipPath>
</defs>
</svg>
