<svg width="102" height="102" viewBox="0 0 102 102" fill="none" xmlns="http://www.w3.org/2000/svg">
<g opacity="0.5" filter="url(#filter0_f_1_432)">
<circle cx="51" cy="51" r="13" fill="#6B78F5"/>
</g>
<path d="M59.7683 45.2317L60.8293 44.1707C60.1982 43.4863 59.4322 42.9401 58.5795 42.5665C57.7268 42.1929 56.8059 42 55.875 42C54.9441 42 54.0232 42.1929 53.1705 42.5665C52.3178 42.9401 51.5518 43.4863 50.9207 44.1707L51.9817 45.2317C52.4733 44.6866 53.0738 44.2508 53.7445 43.9524C54.4151 43.6541 55.141 43.5 55.875 43.5C56.609 43.5 57.3349 43.6541 58.0055 43.9524C58.6762 44.2508 59.2767 44.6866 59.7683 45.2317Z" fill="black"/>
<path d="M59.7683 45.2317L60.8293 44.1707C60.1982 43.4863 59.4322 42.9401 58.5795 42.5665C57.7268 42.1929 56.8059 42 55.875 42C54.9441 42 54.0232 42.1929 53.1705 42.5665C52.3178 42.9401 51.5518 43.4863 50.9207 44.1707L51.9817 45.2317C52.4733 44.6866 53.0738 44.2508 53.7445 43.9524C54.4151 43.6541 55.141 43.5 55.875 43.5C56.609 43.5 57.3349 43.6541 58.0055 43.9524C58.6762 44.2508 59.2767 44.6866 59.7683 45.2317Z" fill="url(#paint0_linear_1_432)"/>
<path d="M53.0445 46.2944L54.1085 47.3585C54.3187 47.0909 54.5868 46.8746 54.8928 46.7259C55.1988 46.5771 55.5346 46.4998 55.8748 46.4998C56.215 46.4998 56.5508 46.5771 56.8568 46.7259C57.1628 46.8746 57.431 47.0909 57.6411 47.3585L58.7052 46.2944C58.3539 45.8882 57.9193 45.5623 57.4309 45.339C56.9425 45.1156 56.4117 45 55.8746 45C55.3376 45 54.8068 45.1156 54.3184 45.339C53.83 45.5623 53.3957 45.8882 53.0445 46.2944ZM61.125 52.125H56.625V49.125H55.125V52.125H40.875C40.5767 52.1253 40.2908 52.244 40.0799 52.4549C39.869 52.6658 39.7503 52.9517 39.75 53.25V58.5C39.7503 58.7983 39.869 59.0842 40.0799 59.2951C40.2908 59.506 40.5767 59.6246 40.875 59.625H61.125C61.4233 59.6246 61.7092 59.506 61.9201 59.2951C62.131 59.0842 62.2497 58.7983 62.25 58.5V53.25C62.2497 52.9517 62.131 52.6658 61.9201 52.4549C61.7092 52.244 61.4233 52.1253 61.125 52.125ZM60.75 58.125H41.25V53.625H60.75V58.125Z" fill="black"/>
<path d="M53.0445 46.2944L54.1085 47.3585C54.3187 47.0909 54.5868 46.8746 54.8928 46.7259C55.1988 46.5771 55.5346 46.4998 55.8748 46.4998C56.215 46.4998 56.5508 46.5771 56.8568 46.7259C57.1628 46.8746 57.431 47.0909 57.6411 47.3585L58.7052 46.2944C58.3539 45.8882 57.9193 45.5623 57.4309 45.339C56.9425 45.1156 56.4117 45 55.8746 45C55.3376 45 54.8068 45.1156 54.3184 45.339C53.83 45.5623 53.3957 45.8882 53.0445 46.2944ZM61.125 52.125H56.625V49.125H55.125V52.125H40.875C40.5767 52.1253 40.2908 52.244 40.0799 52.4549C39.869 52.6658 39.7503 52.9517 39.75 53.25V58.5C39.7503 58.7983 39.869 59.0842 40.0799 59.2951C40.2908 59.506 40.5767 59.6246 40.875 59.625H61.125C61.4233 59.6246 61.7092 59.506 61.9201 59.2951C62.131 59.0842 62.2497 58.7983 62.25 58.5V53.25C62.2497 52.9517 62.131 52.6658 61.9201 52.4549C61.7092 52.244 61.4233 52.1253 61.125 52.125ZM60.75 58.125H41.25V53.625H60.75V58.125Z" fill="url(#paint1_linear_1_432)"/>
<path d="M43.5 55.125H45V56.625H43.5V55.125ZM47.25 55.125H48.75V56.625H47.25V55.125ZM51 55.125H52.5V56.625H51V55.125Z" fill="black"/>
<path d="M43.5 55.125H45V56.625H43.5V55.125ZM47.25 55.125H48.75V56.625H47.25V55.125ZM51 55.125H52.5V56.625H51V55.125Z" fill="url(#paint2_linear_1_432)"/>
<defs>
<filter id="filter0_f_1_432" x="0.5" y="0.5" width="101" height="101" filterUnits="userSpaceOnUse" color-interpolation-filters="sRGB">
<feFlood flood-opacity="0" result="BackgroundImageFix"/>
<feBlend mode="normal" in="SourceGraphic" in2="BackgroundImageFix" result="shape"/>
<feGaussianBlur stdDeviation="18.75" result="effect1_foregroundBlur_1_432"/>
</filter>
<linearGradient id="paint0_linear_1_432" x1="51" y1="42" x2="51" y2="59.625" gradientUnits="userSpaceOnUse">
<stop stop-color="#6BCCF5"/>
<stop offset="1" stop-color="#6B78F5"/>
</linearGradient>
<linearGradient id="paint1_linear_1_432" x1="51" y1="42" x2="51" y2="59.625" gradientUnits="userSpaceOnUse">
<stop stop-color="#6BCCF5"/>
<stop offset="1" stop-color="#6B78F5"/>
</linearGradient>
<linearGradient id="paint2_linear_1_432" x1="51" y1="42" x2="51" y2="59.625" gradientUnits="userSpaceOnUse">
<stop stop-color="#6BCCF5"/>
<stop offset="1" stop-color="#6B78F5"/>
</linearGradient>
</defs>
</svg>
