<svg width="98" height="98" viewBox="0 0 98 98" fill="none" xmlns="http://www.w3.org/2000/svg">
<g opacity="0.5" filter="url(#filter0_f_1_422)">
<circle cx="49" cy="49" r="11" fill="#6B78F5"/>
</g>
<path d="M52.6893 50.6924C52.7569 50.134 52.8077 49.5755 52.8077 49.0001C52.8077 48.4247 52.7569 47.8663 52.6893 47.3078H55.5493C55.6846 47.8493 55.7693 48.4163 55.7693 49.0001C55.7693 49.584 55.6846 50.1509 55.5493 50.6924M51.1916 55.397C51.6993 54.4578 52.0885 53.4424 52.3593 52.3847H54.8554C54.0356 53.7963 52.735 54.8656 51.1916 55.397ZM50.98 50.6924H47.02C46.9354 50.134 46.8846 49.5755 46.8846 49.0001C46.8846 48.4247 46.9354 47.8578 47.02 47.3078H50.98C51.0562 47.8578 51.1154 48.4247 51.1154 49.0001C51.1154 49.5755 51.0562 50.134 50.98 50.6924ZM49 55.7355C48.2977 54.7201 47.7308 53.5947 47.3839 52.3847H50.6162C50.2693 53.5947 49.7023 54.7201 49 55.7355ZM45.6154 45.6155H43.1446C43.956 44.2001 45.2556 43.1291 46.8 42.6032C46.2923 43.5424 45.9116 44.5578 45.6154 45.6155ZM43.1446 52.3847H45.6154C45.9116 53.4424 46.2923 54.4578 46.8 55.397C45.2589 54.8654 43.961 53.7959 43.1446 52.3847ZM42.4508 50.6924C42.3154 50.1509 42.2308 49.584 42.2308 49.0001C42.2308 48.4163 42.3154 47.8493 42.4508 47.3078H45.3108C45.2431 47.8663 45.1923 48.4247 45.1923 49.0001C45.1923 49.5755 45.2431 50.134 45.3108 50.6924M49 42.2563C49.7023 43.2717 50.2693 44.4055 50.6162 45.6155H47.3839C47.7308 44.4055 48.2977 43.2717 49 42.2563ZM54.8554 45.6155H52.3593C52.0944 44.5675 51.7023 43.5559 51.1916 42.6032C52.7485 43.1363 54.0431 44.2109 54.8554 45.6155ZM49 40.5386C44.3208 40.5386 40.5385 44.3463 40.5385 49.0001C40.5385 51.2443 41.43 53.3965 43.0168 54.9833C43.8025 55.7691 44.7353 56.3923 45.7619 56.8176C46.7885 57.2428 47.8888 57.4617 49 57.4617C51.2442 57.4617 53.3964 56.5702 54.9832 54.9833C56.5701 53.3965 57.4616 51.2443 57.4616 49.0001C57.4616 47.8889 57.2427 46.7886 56.8175 45.762C56.3922 44.7354 55.769 43.8026 54.9832 43.0169C54.1975 42.2312 53.2647 41.6079 52.2381 41.1827C51.2115 40.7574 50.1112 40.5386 49 40.5386Z" fill="url(#paint0_linear_1_422)"/>
<defs>
<filter id="filter0_f_1_422" x="0.5" y="0.5" width="97" height="97" filterUnits="userSpaceOnUse" color-interpolation-filters="sRGB">
<feFlood flood-opacity="0" result="BackgroundImageFix"/>
<feBlend mode="normal" in="SourceGraphic" in2="BackgroundImageFix" result="shape"/>
<feGaussianBlur stdDeviation="18.75" result="effect1_foregroundBlur_1_422"/>
</filter>
<linearGradient id="paint0_linear_1_422" x1="49" y1="40.5386" x2="49" y2="57.4617" gradientUnits="userSpaceOnUse">
<stop stop-color="#6BCCF5"/>
<stop offset="1" stop-color="#6B78F5"/>
</linearGradient>
</defs>
</svg>
