<svg width="99" height="22" viewBox="0 0 99 22" fill="none" xmlns="http://www.w3.org/2000/svg">
<path d="M98.7071 11.7071C99.0976 11.3166 99.0976 10.6834 98.7071 10.2929L92.3431 3.92893C91.9526 3.53841 91.3195 3.53841 90.9289 3.92893C90.5384 4.31946 90.5384 4.95262 90.9289 5.34315L96.5858 11L90.9289 16.6569C90.5384 17.0474 90.5384 17.6805 90.9289 18.0711C91.3195 18.4616 91.9526 18.4616 92.3431 18.0711L98.7071 11.7071ZM0 12H98V10H0V12Z" fill="url(#paint0_linear_1_367)"/>
<path opacity="0.79" d="M70 12C70.5523 12 71 11.5523 71 11C71 10.4477 70.5523 9.99999 70 9.99999L70 12ZM18 12L70 12L70 9.99999L18 10L18 12Z" fill="url(#paint1_linear_1_367)"/>
<g filter="url(#filter0_f_1_367)">
<ellipse cx="69" cy="11" rx="12" ry="5.5" fill="#62CB79"/>
</g>
<g filter="url(#filter1_f_1_367)">
<ellipse cx="68.5" cy="11" rx="8.5" ry="2.5" fill="#B8ECF6"/>
</g>
<defs>
<filter id="filter0_f_1_367" x="52" y="0.5" width="34" height="21" filterUnits="userSpaceOnUse" color-interpolation-filters="sRGB">
<feFlood flood-opacity="0" result="BackgroundImageFix"/>
<feBlend mode="normal" in="SourceGraphic" in2="BackgroundImageFix" result="shape"/>
<feGaussianBlur stdDeviation="2.5" result="effect1_foregroundBlur_1_367"/>
</filter>
<filter id="filter1_f_1_367" x="58" y="6.5" width="21" height="9" filterUnits="userSpaceOnUse" color-interpolation-filters="sRGB">
<feFlood flood-opacity="0" result="BackgroundImageFix"/>
<feBlend mode="normal" in="SourceGraphic" in2="BackgroundImageFix" result="shape"/>
<feGaussianBlur stdDeviation="1" result="effect1_foregroundBlur_1_367"/>
</filter>
<linearGradient id="paint0_linear_1_367" x1="0" y1="11.5" x2="98" y2="11.5" gradientUnits="userSpaceOnUse">
<stop stop-color="#A6DB64" stop-opacity="0"/>
<stop offset="1" stop-color="#72CF76" stop-opacity="0.4"/>
</linearGradient>
<linearGradient id="paint1_linear_1_367" x1="70" y1="11" x2="69.4682" y2="16.2318" gradientUnits="userSpaceOnUse">
<stop offset="0.191968" stop-color="white"/>
<stop offset="0.81245" stop-color="#62CB79" stop-opacity="0"/>
</linearGradient>
</defs>
</svg>
