<svg width="166" height="21" viewBox="0 0 166 21" fill="none" xmlns="http://www.w3.org/2000/svg">
<path d="M165.707 10.7071C166.098 10.3166 166.098 9.68342 165.707 9.29289L159.343 2.92893C158.953 2.53841 158.319 2.53841 157.929 2.92893C157.538 3.31946 157.538 3.95262 157.929 4.34315L163.586 10L157.929 15.6569C157.538 16.0474 157.538 16.6805 157.929 17.0711C158.319 17.4616 158.953 17.4616 159.343 17.0711L165.707 10.7071ZM5 11H165V9H5V11Z" fill="url(#paint0_linear_1_335)"/>
<path opacity="0.79" d="M132 11C132.552 11 133 10.5523 133 9.99999C133 9.44771 132.552 8.99999 132 8.99999L132 11ZM42 11L132 11L132 8.99999L42 9L42 11Z" fill="url(#paint1_linear_1_335)"/>
<g filter="url(#filter0_f_1_335)">
<ellipse cx="131" cy="10.5" rx="12" ry="5.5" fill="#8069F4"/>
</g>
<g filter="url(#filter1_f_1_335)">
<ellipse cx="130.5" cy="10.5" rx="8.5" ry="2.5" fill="#B8ECF6"/>
</g>
<circle cx="5" cy="10" r="4.5" fill="white" stroke="#FF9797"/>
<defs>
<filter id="filter0_f_1_335" x="114" y="0" width="34" height="21" filterUnits="userSpaceOnUse" color-interpolation-filters="sRGB">
<feFlood flood-opacity="0" result="BackgroundImageFix"/>
<feBlend mode="normal" in="SourceGraphic" in2="BackgroundImageFix" result="shape"/>
<feGaussianBlur stdDeviation="2.5" result="effect1_foregroundBlur_1_335"/>
</filter>
<filter id="filter1_f_1_335" x="120" y="6" width="21" height="9" filterUnits="userSpaceOnUse" color-interpolation-filters="sRGB">
<feFlood flood-opacity="0" result="BackgroundImageFix"/>
<feBlend mode="normal" in="SourceGraphic" in2="BackgroundImageFix" result="shape"/>
<feGaussianBlur stdDeviation="1" result="effect1_foregroundBlur_1_335"/>
</filter>
<linearGradient id="paint0_linear_1_335" x1="5" y1="10.5" x2="165" y2="10.5" gradientUnits="userSpaceOnUse">
<stop stop-color="#433BAF" stop-opacity="0.3"/>
<stop offset="1" stop-color="#8069F4" stop-opacity="0.4"/>
</linearGradient>
<linearGradient id="paint1_linear_1_335" x1="132" y1="9.99998" x2="131.691" y2="15.2676" gradientUnits="userSpaceOnUse">
<stop offset="0.191968" stop-color="white"/>
<stop offset="0.81245" stop-color="#654CFD" stop-opacity="0"/>
</linearGradient>
</defs>
</svg>
