<svg width="1440" height="410" viewBox="0 0 1440 410" fill="none" xmlns="http://www.w3.org/2000/svg">
<g opacity="0.15">
<mask id="mask0_1_1944" style="mask-type:alpha" maskUnits="userSpaceOnUse" x="0" y="0" width="1440" height="410">
<rect width="1440" height="410" fill="url(#paint0_angular_1_1944)"/>
</mask>
<g mask="url(#mask0_1_1944)">
<path d="M1065.35 -5.65504C992.449 4.13609 877.85 26.889 931.293 135.748C999.302 274.28 1179.9 255.686 1096.2 350.461" stroke="white"/>
<path d="M1044.14 16.2376C971.501 26.0521 857.315 48.8418 910.548 157.683C978.29 296.19 1158.24 277.538 1074.83 372.339" stroke="white"/>
<path d="M1022.5 36.959C949.597 46.7501 834.999 69.5031 888.441 178.362C956.45 316.894 1137.05 298.3 1053.35 393.075" stroke="white"/>
<path d="M999.201 54.1343C926.56 63.9489 812.374 86.7386 865.606 195.579C933.349 334.087 1113.3 315.435 1029.89 410.236" stroke="white"/>
<path d="M975.512 69.01C902.609 78.8011 788.011 101.554 841.453 210.413C909.462 348.945 1090.06 330.351 1006.36 425.126" stroke="white"/>
<path d="M950.727 79.2576C877.823 89.0487 763.225 111.802 816.668 220.661C884.677 359.192 1065.28 340.599 981.575 435.374" stroke="white"/>
<path d="M925.317 86.052C852.413 95.8431 737.815 118.596 791.257 227.455C859.267 365.987 1039.86 347.393 956.165 442.168" stroke="white"/>
<path d="M899.329 88.2644C826.425 98.0555 711.827 120.808 765.269 229.668C833.278 368.199 1013.88 349.606 930.177 444.381" stroke="white"/>
<path d="M873.532 85.9631C800.628 95.7542 686.03 118.507 739.472 227.367C807.481 365.898 988.08 347.304 904.38 442.079" stroke="white"/>
<path d="M847.817 81.4043C774.913 91.1954 660.315 113.948 713.758 222.808C781.767 361.339 962.365 342.746 878.665 437.521" stroke="white"/>
<path d="M822.431 74.6101C749.791 84.4247 635.604 107.214 688.837 216.055C756.579 354.563 936.526 335.911 853.116 430.712" stroke="white"/>
<path d="M797.38 66.7121C724.476 76.5033 609.878 99.2562 663.32 208.116C731.329 346.647 911.928 328.053 828.228 422.828" stroke="white"/>
<path d="M771.801 58.7685C698.898 68.5597 584.3 91.3126 637.742 200.172C705.751 338.703 886.349 320.11 802.65 414.885" stroke="white"/>
<path d="M747.032 49.7632C674.128 59.5543 559.53 82.3073 612.972 191.167C680.981 329.698 861.58 311.104 777.88 405.879" stroke="white"/>
<path d="M721.458 41.8193C648.554 51.6105 533.956 74.3634 587.398 183.223C655.407 321.754 836.006 303.161 752.306 397.936" stroke="white"/>
<path d="M696.119 33.896C623.478 43.7106 509.292 66.5003 562.524 175.341C630.267 313.848 810.214 295.197 726.803 389.998" stroke="white"/>
<path d="M671.02 27.1272C598.117 36.9183 483.518 59.6713 536.961 168.531C604.97 307.062 785.568 288.468 701.868 383.243" stroke="white"/>
<path d="M645.399 20.3115C572.495 30.1026 457.897 52.8556 511.34 161.715C579.349 300.246 759.947 281.653 676.247 376.428" stroke="white"/>
<path d="M619.684 15.7529C546.781 25.544 432.182 48.297 485.625 157.156C553.634 295.688 734.232 277.094 650.532 371.869" stroke="white"/>
<path d="M593.973 11.1943C521.07 20.9855 406.472 43.7384 459.914 152.598C527.923 291.129 708.521 272.536 624.821 367.311" stroke="white"/>
<path d="M568.262 6.63573C495.359 16.4269 380.761 39.1798 434.203 148.039C502.212 286.571 682.81 267.977 599.111 362.752" stroke="white"/>
<path d="M542.505 3.2058C469.601 12.9969 355.003 35.7499 408.445 144.609C476.454 283.141 657.053 264.547 573.353 359.322" stroke="white"/>
<path d="M516.7 0.904288C443.796 10.6954 329.198 33.4484 382.64 142.308C450.649 280.839 631.248 262.246 547.548 357.021" stroke="white"/>
<path d="M490.852 -0.268808C417.949 9.52232 303.35 32.2753 356.793 141.135C424.802 279.666 605.4 261.072 521.7 355.847" stroke="white"/>
<path d="M465.001 -1.4419C392.097 8.34922 277.499 31.1022 330.941 139.962C398.95 278.493 579.549 259.899 495.849 354.674" stroke="white"/>
<path d="M439.106 -1.48634C366.202 8.30479 251.604 31.0577 305.047 139.917C373.056 278.448 553.654 259.855 469.954 354.63" stroke="white"/>
<path d="M413.357 0.747333C340.716 10.5619 226.53 33.3516 279.763 142.192C347.505 280.7 527.452 262.048 444.041 356.849" stroke="white"/>
<path d="M387.806 5.26317C314.902 15.0543 200.304 37.8073 253.746 146.667C321.755 285.198 502.354 266.604 418.654 361.379" stroke="white"/>
<path d="M362.399 12.0576C289.495 21.8487 174.897 44.6017 228.34 153.461C296.349 291.992 476.947 273.399 393.247 368.174" stroke="white"/>
<path d="M337.657 21.177C264.753 30.9681 150.155 53.7211 203.598 162.58C271.607 301.112 452.205 282.518 368.505 377.293" stroke="white"/>
<path d="M1597.8 55.4633C1524.82 63.9318 1410.05 84.6052 1462.59 194.425C1529.46 334.18 1710.2 318.862 1625.73 412.112" stroke="white"/>
<path d="M1572.48 48.2089C1499.76 56.7057 1385.4 77.4232 1437.73 187.221C1504.33 326.947 1684.42 311.559 1600.24 404.84" stroke="white"/>
<path d="M1547.49 39.8578C1474.51 48.3263 1359.74 68.9997 1412.28 178.82C1479.15 318.574 1659.89 303.257 1575.42 396.507" stroke="white"/>
<path d="M1521.98 31.4503C1449 39.9188 1334.22 60.5922 1386.77 170.413C1453.64 310.167 1634.38 294.849 1549.9 388.099" stroke="white"/>
<path d="M1497.29 21.9969C1424.31 30.4655 1309.53 51.1389 1362.08 160.959C1428.95 300.713 1609.68 285.396 1525.21 378.646" stroke="white"/>
<path d="M1471.78 13.59C1398.8 22.0585 1284.02 42.7319 1336.57 152.552C1403.43 292.306 1584.17 276.989 1499.7 370.239" stroke="white"/>
<path d="M1446.5 5.20772C1373.79 13.7044 1259.42 34.422 1311.76 144.22C1378.36 283.945 1558.45 268.558 1474.27 361.839" stroke="white"/>
<path d="M1421.46 -2.01551C1348.48 6.45301 1233.71 27.1264 1286.25 136.947C1353.12 276.701 1533.86 261.383 1449.39 354.634" stroke="white"/>
<path d="M1395.9 -9.29529C1322.92 -0.826773 1208.15 19.8466 1260.69 129.667C1327.56 269.421 1508.3 254.104 1423.83 347.354" stroke="white"/>
<path d="M1370.23 -14.3197C1297.25 -5.85119 1182.47 14.8222 1235.02 124.643C1301.89 264.397 1482.63 249.079 1398.15 342.329" stroke="white"/>
<path d="M1344.56 -19.3441C1271.58 -10.8756 1156.8 9.79779 1209.35 119.618C1276.22 259.372 1456.95 244.055 1372.48 337.305" stroke="white"/>
<path d="M1318.88 -24.3685C1245.9 -15.9 1131.13 4.77338 1183.67 114.594C1250.54 254.348 1431.28 239.03 1346.81 332.281" stroke="white"/>
<path d="M1293.15 -28.2655C1220.18 -19.797 1105.4 0.876406 1157.95 110.697C1224.81 250.451 1405.55 235.133 1321.08 328.384" stroke="white"/>
<path d="M1267.37 -31.0348C1194.39 -22.5663 1079.62 -1.89288 1132.16 107.927C1199.03 247.682 1379.77 232.364 1295.3 325.614" stroke="white"/>
<path d="M1241.53 -32.6764C1168.55 -24.2079 1053.78 -3.53448 1106.32 106.286C1173.19 246.04 1353.93 230.722 1269.46 323.973" stroke="white"/>
<path d="M1215.7 -34.3178C1142.72 -25.8492 1027.94 -5.17584 1080.49 104.644C1147.36 244.399 1328.09 229.081 1243.62 322.331" stroke="white"/>
<path d="M1189.81 -34.8319C1116.83 -26.3634 1002.05 -5.69 1054.6 104.13C1121.47 243.884 1302.2 228.567 1217.73 321.817" stroke="white"/>
<path d="M1164.04 -33.0652C1091.33 -24.5685 976.962 -3.85092 1029.3 105.947C1095.9 245.672 1275.99 230.285 1191.8 323.566" stroke="white"/>
<path d="M1138.45 -29.0131C1065.47 -20.5445 950.697 0.128847 1003.24 109.949C1070.11 249.703 1250.85 234.386 1166.38 327.636" stroke="white"/>
<path d="M1112.99 -22.6796C1040.01 -14.211 925.236 6.46234 977.781 116.283C1044.65 256.037 1225.39 240.719 1140.92 333.97" stroke="white"/>
<path d="M1088.17 -14.0101C1015.2 -5.54162 900.419 15.1318 952.965 124.952C1019.83 264.706 1200.57 249.389 1116.1 342.639" stroke="white"/>
<path d="M305.528 19.0266C232.29 24.8413 116.839 41.336 165.365 152.991C227.118 295.079 408.292 286.331 320.493 376.454" stroke="white"/>
<path d="M283.371 39.7426C210.395 45.595 95.3536 62.1489 143.671 173.774C205.158 315.824 385.685 306.982 298.173 397.147" stroke="white"/>
<path d="M260.84 59.2656C187.602 65.0803 72.1515 81.5751 120.677 193.23C182.43 335.318 363.604 326.57 275.805 416.693" stroke="white"/>
<path d="M236.809 75.1552C163.832 81.0076 48.7911 97.5615 97.1086 209.186C158.596 351.237 339.122 342.394 251.611 432.559" stroke="white"/>
<path d="M212.492 88.7271C139.255 94.5417 23.8039 111.036 72.3298 222.691C134.082 364.78 315.257 356.031 227.458 446.155" stroke="white"/>
<path d="M187.281 97.6157C114.044 103.43 -1.40706 119.925 47.1188 231.58C108.871 373.669 290.046 364.92 202.247 455.043" stroke="white"/>
<path d="M161.606 103.021C88.3679 108.835 -27.0828 125.33 21.443 236.985C83.1957 379.074 264.37 370.325 176.571 460.448" stroke="white"/>
<path d="M135.563 103.817C62.325 109.632 -53.1257 126.127 -4.59986 237.781C57.1527 379.87 238.327 371.121 150.528 461.245" stroke="white"/>
<path d="M109.895 100.114C36.657 105.929 -78.7938 122.423 -30.2679 234.078C31.4847 376.167 212.659 367.418 124.86 457.542" stroke="white"/>
<path d="M84.4221 94.1611C11.1843 99.9758 -104.266 116.471 -55.7405 228.125C6.01206 370.214 187.186 361.465 99.3873 451.589" stroke="white"/>
<path d="M59.3751 85.9926C-13.6014 91.845 -128.642 108.399 -80.325 220.024C-18.8376 362.074 161.688 353.232 74.1773 443.397" stroke="white"/>
<path d="M34.7073 76.7402C-38.5305 82.5549 -153.981 99.0497 -105.455 210.704C-43.7028 352.793 137.471 344.044 49.6725 434.168" stroke="white"/>
<path d="M9.51976 67.4126C-63.718 73.2273 -179.169 89.722 -130.643 201.377C-68.8903 343.465 112.284 334.717 24.485 424.84" stroke="white"/>
<path d="M-14.8162 57.0693C-88.054 62.884 -203.505 79.3788 -154.979 191.034C-93.2262 333.122 87.9481 324.373 0.149035 414.497" stroke="white"/>
<path d="M-40.0037 47.7422C-113.241 53.5569 -228.692 70.0516 -180.166 181.706C-118.414 323.795 62.7606 315.046 -25.0385 405.17" stroke="white"/>
<path d="M-64.9531 38.4485C-137.93 44.3008 -252.971 60.8547 -204.653 172.479C-143.166 314.53 37.3604 305.687 -50.1508 395.853" stroke="white"/>
</g>
</g>
<defs>
<radialGradient id="paint0_angular_1_1944" cx="0" cy="0" r="1" gradientUnits="userSpaceOnUse" gradientTransform="translate(752 205) rotate(92.1313) scale(228.555 885.058)">
<stop offset="0.00156436" stop-color="#808080" stop-opacity="0.35"/>
<stop offset="0.0933969" stop-color="#737373" stop-opacity="0"/>
<stop offset="0.152718" stop-color="#ABABAB"/>
<stop offset="0.212268" stop-color="#A2A2A2" stop-opacity="0.77"/>
<stop offset="0.297725" stop-color="#A4A4A4" stop-opacity="0.15"/>
<stop offset="0.458696" stop-color="#A0A0A0" stop-opacity="0"/>
<stop offset="0.582188" stop-color="#787878" stop-opacity="0.15"/>
<stop offset="0.629242" stop-color="#9B9B9B"/>
<stop offset="0.870437" stop-color="#868686" stop-opacity="0.27"/>
</radialGradient>
</defs>
</svg>
