<svg width="14" height="14" viewBox="0 0 14 14" fill="none" xmlns="http://www.w3.org/2000/svg">
<g clip-path="url(#clip0_1_2439)">
<path d="M11.9486 11.8308H9.87081V8.60891C9.87081 7.84061 9.85696 6.85157 8.79012 6.85157C7.70792 6.85157 7.54234 7.68867 7.54234 8.55298V11.8306H5.46449V5.20503H7.45921V6.11049H7.48714C7.68677 5.77253 7.97523 5.49451 8.32181 5.30604C8.66839 5.11757 9.06011 5.0257 9.45525 5.04023C11.5612 5.04023 11.9495 6.41181 11.9495 8.19615L11.9486 11.8308ZM3.12 4.29936C2.88152 4.2994 2.64837 4.22942 2.45005 4.09827C2.25174 3.96711 2.09717 3.78067 2.00586 3.56253C1.91456 3.34438 1.89063 3.10433 1.93711 2.87273C1.9836 2.64112 2.09841 2.42836 2.26701 2.26136C2.43561 2.09436 2.65044 1.98061 2.88434 1.9345C3.11823 1.88839 3.36067 1.91199 3.58102 2.00232C3.80137 2.09264 3.98971 2.24564 4.12224 2.44195C4.25477 2.63827 4.32554 2.86909 4.32558 3.10522C4.32561 3.26201 4.29444 3.41727 4.23387 3.56213C4.1733 3.707 4.08452 3.83863 3.97257 3.94951C3.86062 4.0604 3.7277 4.14837 3.58142 4.20839C3.43513 4.26842 3.27835 4.29933 3.12 4.29936ZM4.15892 11.8308H2.07892V5.20503H4.15892V11.8308ZM12.9845 0.000945999H1.03481C0.763583 -0.00208463 0.502225 0.101628 0.308189 0.289293C0.114152 0.476958 0.00331015 0.733221 0 1.00177V12.8829C0.00319686 13.1516 0.113974 13.408 0.308004 13.5959C0.502034 13.7837 0.763449 13.8877 1.03481 13.8848H12.9845C13.2564 13.8882 13.5186 13.7845 13.7134 13.5967C13.9082 13.4088 14.0197 13.1521 14.0235 12.8829V1.00092C14.0196 0.731832 13.908 0.475276 13.7132 0.287616C13.5184 0.0999555 13.2563 -0.00346048 12.9845 8.84129e-05" fill="white"/>
</g>
<defs>
<clipPath id="clip0_1_2439">
<rect width="14" height="14" fill="white"/>
</clipPath>
</defs>
</svg>
