<svg width="180" height="180" viewBox="0 0 180 180" fill="none" xmlns="http://www.w3.org/2000/svg">
<g opacity="0.05">
<path d="M56.2146 132.928C56.2146 132.928 56.2146 113.009 56.2146 102.871C61.5505 97.5348 67.5213 91.6653 72.8572 86.3295C78.7266 86.3295 101.287 86.3295 107.156 86.3295C112.492 91.6653 118.463 97.5348 123.799 102.871C123.799 113.009 123.799 132.928 123.799 132.928" stroke="white" stroke-width="9" stroke-miterlimit="10"/>
<path d="M90.0106 73.2399C98.1971 73.2399 104.834 66.6034 104.834 58.4168C104.834 50.2303 98.1971 43.5938 90.0106 43.5938C81.824 43.5938 75.1875 50.2303 75.1875 58.4168C75.1875 66.6034 81.824 73.2399 90.0106 73.2399Z" stroke="white" stroke-width="9" stroke-miterlimit="10"/>
<path d="M140.203 96.6599C149.221 96.6599 152.721 96.6599 157.353 96.6599C162.689 101.996 168.659 107.865 173.995 113.201C173.995 123.339 173.995 132.928 173.995 132.928" stroke="white" stroke-width="9" stroke-miterlimit="10"/>
<path d="M140.179 83.2931C148.365 83.2931 155.002 76.6566 155.002 68.47C155.002 60.2835 148.365 53.647 140.179 53.647C131.992 53.647 125.355 60.2835 125.355 68.47C125.355 76.6566 131.992 83.2931 140.179 83.2931Z" stroke="white" stroke-width="9" stroke-miterlimit="10"/>
<path d="M39.7921 96.6597C30.7745 96.6597 27.2741 96.6597 22.6426 96.6597C17.3067 101.996 11.3359 107.865 6 113.201C6 123.339 6 132.928 6 132.928" stroke="white" stroke-width="9" stroke-miterlimit="10"/>
<path d="M39.9481 83.2931C48.1346 83.2931 54.7711 76.6566 54.7711 68.47C54.7711 60.2835 48.1346 53.647 39.9481 53.647C31.7615 53.647 25.125 60.2835 25.125 68.47C25.125 76.6566 31.7615 83.2931 39.9481 83.2931Z" stroke="white" stroke-width="9" stroke-miterlimit="10"/>
</g>
</svg>
