<svg width="64" height="64" viewBox="0 0 64 64" fill="none" xmlns="http://www.w3.org/2000/svg">
<g clip-path="url(#clip0_1_2290)">
<path d="M17.8537 37.1154H4.74146L0 63.9923L26.8769 59.2501V46.1385C22.6917 44.6217 19.37 41.3009 17.8537 37.1154ZM0 0L4.74146 26.8769H17.8537C19.37 22.6917 22.6917 19.3707 26.8769 17.8537V4.74219L0 0ZM37.1154 4.74219V17.8537C41.3 19.3707 44.6217 22.6917 46.1379 26.8769H59.2501L63.9917 0L37.1154 4.74219ZM63.9917 63.9923L37.1154 59.2501V46.1385C41.3 44.6217 44.6217 41.3009 46.1379 37.1154H59.2501L63.9917 63.9923Z" fill="white"/>
</g>
<defs>
<clipPath id="clip0_1_2290">
<rect width="64" height="64" fill="white"/>
</clipPath>
</defs>
</svg>
