<svg width="430" height="56" viewBox="0 0 430 56" fill="none" xmlns="http://www.w3.org/2000/svg">
<g filter="url(#filter0_b_1_1756)">
<mask id="path-1-inside-1_1_1756" fill="white">
<path d="M0 -6.10352e-05H392.939L410 16.69V41.345L430 55.9999H15.8434L0 41.5378V-6.10352e-05Z"/>
</mask>
<path d="M0 -6.10352e-05H392.939L410 16.69V41.345L430 55.9999H15.8434L0 41.5378V-6.10352e-05Z" fill="url(#paint0_linear_1_1756)" fill-opacity="0.6"/>
<path d="M0 -6.10352e-05V-1.00006H-1V-6.10352e-05H0ZM430 55.9999V56.9999H433.057L430.591 55.1933L430 55.9999ZM15.8434 55.9999L15.1692 56.7385L15.4556 56.9999H15.8434V55.9999ZM0 41.5378H-1V41.979L-0.674179 42.2764L0 41.5378ZM410 16.69H411V16.2694L410.699 15.9752L410 16.69ZM392.939 -6.10352e-05L393.639 -0.714888L393.347 -1.00006H392.939V-6.10352e-05ZM410 41.345H409V41.852L409.409 42.1516L410 41.345ZM430 54.9999H15.8434V56.9999H430V54.9999ZM1 41.5378V-6.10352e-05H-1V41.5378H1ZM16.5176 55.2614L0.674179 40.7992L-0.674179 42.2764L15.1692 56.7385L16.5176 55.2614ZM0 0.999939H392.939V-1.00006H0V0.999939ZM392.24 0.714766L409.301 17.4048L410.699 15.9752L393.639 -0.714888L392.24 0.714766ZM409 16.69V41.345H411V16.69H409ZM409.409 42.1516L429.409 56.8066L430.591 55.1933L410.591 40.5383L409.409 42.1516Z" fill="url(#paint1_linear_1_1756)" mask="url(#path-1-inside-1_1_1756)"/>
</g>
<defs>
<filter id="filter0_b_1_1756" x="-20" y="-20.0001" width="470" height="96" filterUnits="userSpaceOnUse" color-interpolation-filters="sRGB">
<feFlood flood-opacity="0" result="BackgroundImageFix"/>
<feGaussianBlur in="BackgroundImageFix" stdDeviation="10"/>
<feComposite in2="SourceAlpha" operator="in" result="effect1_backgroundBlur_1_1756"/>
<feBlend mode="normal" in="SourceGraphic" in2="effect1_backgroundBlur_1_1756" result="shape"/>
</filter>
<linearGradient id="paint0_linear_1_1756" x1="0" y1="27.9999" x2="430" y2="27.9999" gradientUnits="userSpaceOnUse">
<stop stop-color="white" stop-opacity="0.2"/>
<stop offset="1" stop-color="white" stop-opacity="0.06"/>
</linearGradient>
<linearGradient id="paint1_linear_1_1756" x1="0" y1="-6.10352e-05" x2="429.26" y2="61.1917" gradientUnits="userSpaceOnUse">
<stop stop-color="white" stop-opacity="0.2"/>
<stop offset="0.590107" stop-color="white" stop-opacity="0"/>
<stop offset="1" stop-color="white" stop-opacity="0.1"/>
</linearGradient>
</defs>
</svg>
