<svg width="118" height="57" viewBox="0 0 118 57" fill="none" xmlns="http://www.w3.org/2000/svg">
<g filter="url(#filter0_b_1_1760)">
<mask id="path-1-inside-1_1_1760" fill="white">
<path d="M33.982 0.660034H118V41.1408L103.877 56.66H0L20 41.3829V14.1058L33.982 0.660034Z"/>
</mask>
<path d="M33.982 0.660034H118V41.1408L103.877 56.66H0L20 41.3829V14.1058L33.982 0.660034Z" fill="url(#paint0_linear_1_1760)" fill-opacity="0.6"/>
<path d="M118 0.660034V-0.339966H119V0.660034H118ZM0 56.66V57.66H-2.95653L-0.607025 55.8653L0 56.66ZM33.982 0.660034L33.2889 -0.0607599L33.5792 -0.339966H33.982V0.660034ZM20 14.1058H19V13.6801L19.3069 13.385L20 14.1058ZM103.877 56.66L104.617 57.3331L104.32 57.66H103.877V56.66ZM118 41.1408H119V41.5277L118.74 41.8139L118 41.1408ZM20 41.3829H21V41.8774L20.607 42.1776L20 41.3829ZM33.982 -0.339966H118V1.66003H33.982V-0.339966ZM19.3069 13.385L33.2889 -0.0607599L34.6752 1.38083L20.6931 14.8266L19.3069 13.385ZM103.877 57.66H0V55.66H103.877V57.66ZM119 0.660034V41.1408H117V0.660034H119ZM118.74 41.8139L104.617 57.3331L103.138 55.987L117.26 40.4678L118.74 41.8139ZM-0.607025 55.8653L19.393 40.5882L20.607 42.1776L0.607025 57.4547L-0.607025 55.8653ZM19 41.3829V14.1058H21V41.3829H19Z" fill="url(#paint1_linear_1_1760)" mask="url(#path-1-inside-1_1_1760)"/>
</g>
<defs>
<filter id="filter0_b_1_1760" x="-20" y="-19.34" width="158" height="96" filterUnits="userSpaceOnUse" color-interpolation-filters="sRGB">
<feFlood flood-opacity="0" result="BackgroundImageFix"/>
<feGaussianBlur in="BackgroundImageFix" stdDeviation="10"/>
<feComposite in2="SourceAlpha" operator="in" result="effect1_backgroundBlur_1_1760"/>
<feBlend mode="normal" in="SourceGraphic" in2="effect1_backgroundBlur_1_1760" result="shape"/>
</filter>
<linearGradient id="paint0_linear_1_1760" x1="446.186" y1="28.5227" x2="-1.05359" y2="28.5227" gradientUnits="userSpaceOnUse">
<stop stop-color="white" stop-opacity="0.2"/>
<stop offset="1" stop-color="white" stop-opacity="0.06"/>
</linearGradient>
<linearGradient id="paint1_linear_1_1760" x1="118" y1="8.25224" x2="9.72026" y2="74.318" gradientUnits="userSpaceOnUse">
<stop stop-color="white" stop-opacity="0.1"/>
<stop offset="0.409893" stop-color="white" stop-opacity="0"/>
<stop offset="1" stop-color="white" stop-opacity="0.2"/>
</linearGradient>
</defs>
</svg>
