<svg width="46" height="46" viewBox="0 0 46 46" fill="none" xmlns="http://www.w3.org/2000/svg">
<path d="M24.1867 2.74307C23.6911 3.23866 22.8896 3.23866 22.394 2.74307C21.8984 2.24747 21.8984 1.4459 22.394 0.950309C22.8896 0.454715 23.6911 0.454715 24.1867 0.950309C24.6823 1.4459 24.6823 2.24747 24.1867 2.74307ZM29.5478 6.31135C29.0522 5.81575 28.2506 5.81575 27.755 6.31135C27.2594 6.80694 27.2594 7.60851 27.755 8.1041C28.2506 8.5997 29.0522 8.5997 29.5478 8.1041C30.0434 7.60851 30.0434 6.80694 29.5478 6.31135ZM34.9088 11.6724C34.4132 11.1768 33.6116 11.1768 33.116 11.6724C32.6205 12.168 32.6205 12.9695 33.116 13.4651C33.6116 13.9607 34.4132 13.9607 34.9088 13.4651C35.4044 12.9695 35.4044 12.168 34.9088 11.6724ZM40.2698 17.0334C39.7742 16.5378 38.9727 16.5378 38.4771 17.0334C37.9815 17.529 37.9815 18.3306 38.4771 18.8262C38.9727 19.3218 39.7742 19.3218 40.2698 18.8262C40.7654 18.3306 40.7654 17.529 40.2698 17.0334ZM45.6309 22.3945C45.1353 21.8989 44.3337 21.8989 43.8381 22.3945C43.3425 22.8901 43.3425 23.6916 43.8381 24.1872C44.3337 24.6828 45.1353 24.6828 45.6309 24.1872C46.1222 23.6916 46.1222 22.8901 45.6309 22.3945ZM18.8257 6.31135C18.3301 5.81575 17.5285 5.81575 17.0329 6.31135C16.5373 6.80694 16.5373 7.60851 17.0329 8.1041C17.5285 8.5997 18.3301 8.5997 18.8257 8.1041C19.3213 7.60851 19.3213 6.80694 18.8257 6.31135ZM24.1867 11.6724C23.6911 11.1768 22.8896 11.1768 22.394 11.6724C21.8984 12.168 21.8984 12.9695 22.394 13.4651C22.8896 13.9607 23.6911 13.9607 24.1867 13.4651C24.6823 12.9695 24.6823 12.168 24.1867 11.6724ZM29.5478 17.0334C29.0522 16.5378 28.2506 16.5378 27.755 17.0334C27.2594 17.529 27.2594 18.3306 27.755 18.8262C28.2506 19.3218 29.0522 19.3218 29.5478 18.8262C30.0434 18.3306 30.0434 17.529 29.5478 17.0334ZM34.9088 22.3945C34.4132 21.8989 33.6116 21.8989 33.116 22.3945C32.6205 22.8901 32.6205 23.6916 33.116 24.1872C33.6116 24.6828 34.4132 24.6828 34.9088 24.1872C35.4044 23.6916 35.4044 22.8901 34.9088 22.3945ZM40.2698 27.7555C39.7742 27.2599 38.9727 27.2599 38.4771 27.7555C37.9815 28.2511 37.9815 29.0527 38.4771 29.5483C38.9727 30.0438 39.7742 30.0438 40.2698 29.5483C40.7654 29.0527 40.7654 28.2511 40.2698 27.7555ZM13.4647 11.6724C12.9691 11.1768 12.1675 11.1768 11.6719 11.6724C11.1763 12.168 11.1763 12.9695 11.6719 13.4651C12.1675 13.9607 12.9691 13.9607 13.4647 13.4651C13.9602 12.9695 13.9602 12.168 13.4647 11.6724ZM18.8257 17.0334C18.3301 16.5378 17.5285 16.5378 17.0329 17.0334C16.5373 17.529 16.5373 18.3306 17.0329 18.8262C17.5285 19.3218 18.3301 19.3218 18.8257 18.8262C19.3213 18.3306 19.3213 17.529 18.8257 17.0334ZM24.1867 22.3945C23.6911 21.8989 22.8896 21.8989 22.394 22.3945C21.8984 22.8901 21.8984 23.6916 22.394 24.1872C22.8896 24.6828 23.6911 24.6828 24.1867 24.1872C24.6823 23.6916 24.6823 22.8901 24.1867 22.3945ZM29.5478 27.7555C29.0522 27.2599 28.2506 27.2599 27.755 27.7555C27.2594 28.2511 27.2594 29.0527 27.755 29.5483C28.2506 30.0438 29.0522 30.0438 29.5478 29.5483C30.0434 29.0527 30.0434 28.2511 29.5478 27.7555ZM34.9088 33.1165C34.4132 32.6209 33.6116 32.6209 33.116 33.1165C32.6205 33.6121 32.6205 34.4137 33.116 34.9093C33.6116 35.4049 34.4132 35.4049 34.9088 34.9093C35.4044 34.4137 35.4044 33.6078 34.9088 33.1165ZM8.10361 17.0334C7.60802 16.5378 6.80645 16.5378 6.31086 17.0334C5.81526 17.529 5.81526 18.3306 6.31086 18.8262C6.80645 19.3218 7.60802 19.3218 8.10361 18.8262C8.59921 18.3306 8.59921 17.529 8.10361 17.0334ZM13.4647 22.3945C12.9691 21.8989 12.1675 21.8989 11.6719 22.3945C11.1763 22.8901 11.1763 23.6916 11.6719 24.1872C12.1675 24.6828 12.9691 24.6828 13.4647 24.1872C13.9602 23.6916 13.9602 22.8901 13.4647 22.3945ZM18.8257 27.7555C18.3301 27.2599 17.5285 27.2599 17.0329 27.7555C16.5373 28.2511 16.5373 29.0527 17.0329 29.5483C17.5285 30.0438 18.3301 30.0438 18.8257 29.5483C19.3213 29.0527 19.3213 28.2511 18.8257 27.7555ZM24.1867 33.1165C23.6911 32.6209 22.8896 32.6209 22.394 33.1165C21.8984 33.6121 21.8984 34.4137 22.394 34.9093C22.8896 35.4049 23.6911 35.4049 24.1867 34.9093C24.6823 34.4137 24.6823 33.6078 24.1867 33.1165ZM29.5478 38.4776C29.0522 37.982 28.2506 37.982 27.755 38.4776C27.2594 38.9732 27.2594 39.7747 27.755 40.2703C28.2506 40.7659 29.0522 40.7659 29.5478 40.2703C30.0434 39.7747 30.0434 38.9689 29.5478 38.4776ZM2.74258 22.3945C2.24698 21.8989 1.44541 21.8989 0.949821 22.3945C0.454226 22.8901 0.454226 23.6916 0.949821 24.1872C1.44541 24.6828 2.24698 24.6828 2.74258 24.1872C3.23817 23.6916 3.23817 22.8901 2.74258 22.3945ZM8.10361 27.7555C7.60802 27.2599 6.80645 27.2599 6.31086 27.7555C5.81526 28.2511 5.81526 29.0527 6.31086 29.5483C6.80645 30.0438 7.60802 30.0438 8.10361 29.5483C8.59921 29.0527 8.59921 28.2511 8.10361 27.7555ZM13.4647 33.1165C12.9691 32.6209 12.1675 32.6209 11.6719 33.1165C11.1763 33.6121 11.1763 34.4137 11.6719 34.9093C12.1675 35.4049 12.9691 35.4049 13.4647 34.9093C13.9602 34.4137 13.9602 33.6078 13.4647 33.1165ZM18.8257 38.4776C18.3301 37.982 17.5285 37.982 17.0329 38.4776C16.5373 38.9732 16.5373 39.7747 17.0329 40.2703C17.5285 40.7659 18.3301 40.7659 18.8257 40.2703C19.3213 39.7747 19.3213 38.9689 18.8257 38.4776ZM24.1867 43.8343C23.6911 43.3387 22.8896 43.3387 22.394 43.8343C21.8984 44.3299 21.8984 45.1315 22.394 45.6271C22.8896 46.1227 23.6911 46.1227 24.1867 45.6271C24.6823 45.1358 24.6823 44.3299 24.1867 43.8343Z" fill="#3D415C"/>
</svg>
